<svg width="110" height="110" viewBox="0 0 110 110" fill="none" xmlns="http://www.w3.org/2000/svg">
<path d="M94.5691 16.8039C94.7501 16.9914 94.9296 17.1804 95.1079 17.3706C94.9296 17.1804 94.7501 16.9914 94.5691 16.8039Z" fill="#FFD042"/>
<path d="M96.944 19.4274C97.2767 19.8193 97.6042 20.2162 97.9259 20.6174C97.6042 20.2162 97.2767 19.8195 96.944 19.4274Z" fill="#FFD042"/>
<path d="M95.2511 17.5241C95.5914 17.8894 95.9271 18.2593 96.2574 18.634C95.9269 18.2593 95.5914 17.8894 95.2511 17.5241Z" fill="#FFD042"/>
<path d="M87.5726 10.6824C87.7456 10.8098 87.9184 10.9372 88.0898 11.0665C87.9182 10.937 87.7454 10.8096 87.5726 10.6824Z" fill="#FFD042"/>
<path d="M92.7223 14.9783C92.9045 15.1502 93.0851 15.3237 93.265 15.4979C93.0851 15.3237 92.9045 15.1502 92.7223 14.9783Z" fill="#FFD042"/>
<path d="M88.4867 11.3708C88.7612 11.5819 89.0342 11.7952 89.3046 12.0113C89.0342 11.7952 88.7612 11.5819 88.4867 11.3708Z" fill="#FFD042"/>
<path d="M98.0004 20.71C98.1721 20.925 98.3424 21.1413 98.511 21.359C98.3424 21.1413 98.1721 20.925 98.0004 20.71Z" fill="#FFD042"/>
<path d="M89.6202 12.2655C90.0052 12.5778 90.3865 12.8945 90.7626 13.2167C90.3863 12.8945 90.0052 12.5778 89.6202 12.2655Z" fill="#FFD042"/>
<path d="M91.5839 13.9361C91.945 14.2583 92.3023 14.5846 92.655 14.916C92.3025 14.5844 91.9453 14.2581 91.5839 13.9361Z" fill="#FFD042"/>
<path d="M90.7903 13.2401C90.9714 13.3955 91.1508 13.5527 91.33 13.7104C91.1508 13.5527 90.9714 13.3955 90.7903 13.2401Z" fill="#FFD042"/>
<path d="M96.33 18.7156C96.5073 18.9175 96.6831 19.1205 96.8575 19.3249C96.6829 19.1208 96.5073 18.9175 96.33 18.7156Z" fill="#FFD042"/>
<path d="M64.1115 109.244C63.2399 109.39 62.3613 109.514 61.4763 109.619C62.3613 109.515 63.2399 109.39 64.1115 109.244Z" fill="#FFD042"/>
<path d="M60.8032 109.695C60.6072 109.716 60.4104 109.734 60.214 109.752C60.4104 109.734 60.6072 109.716 60.8032 109.695Z" fill="#FFD042"/>
<path d="M65.3457 109.024C65.0499 109.08 64.7538 109.135 64.4564 109.187C64.7538 109.136 65.0499 109.08 65.3457 109.024Z" fill="#FFD042"/>
<path d="M59.491 109.816C59.3031 109.832 59.115 109.846 58.9266 109.859C59.115 109.846 59.3031 109.832 59.491 109.816Z" fill="#FFD042"/>
<path d="M58.1543 109.908C57.9785 109.918 57.8028 109.928 57.6265 109.936C57.8028 109.928 57.9785 109.918 58.1543 109.908Z" fill="#FFD042"/>
<path d="M66.5842 108.774C66.2709 108.841 65.9567 108.905 65.6414 108.967C65.9567 108.905 66.2709 108.841 66.5842 108.774Z" fill="#FFD042"/>
<path d="M109.803 50.3525C109.818 50.5283 109.834 50.7038 109.847 50.8803C109.834 50.7038 109.817 50.5285 109.803 50.3525Z" fill="#FFD042"/>
<path d="M109.919 52.0197C109.926 52.1622 109.932 52.305 109.939 52.4478C109.932 52.305 109.926 52.1622 109.919 52.0197Z" fill="#FFD042"/>
<path d="M109.973 53.3381C109.977 53.4701 109.981 53.6021 109.984 53.7343C109.981 53.6021 109.977 53.4701 109.973 53.3381Z" fill="#FFD042"/>
<path d="M109.672 48.9965C109.697 49.22 109.72 49.4436 109.742 49.668C109.72 49.4436 109.697 49.22 109.672 48.9965Z" fill="#FFD042"/>
<path d="M83.246 7.80083C83.4052 7.89639 83.5643 7.99218 83.7226 8.08935C83.5643 7.99218 83.4052 7.89639 83.246 7.80083Z" fill="#FFD042"/>
<path d="M68.6349 1.70454C68.7392 1.73113 68.8428 1.75886 68.9466 1.7859C68.8428 1.75886 68.7392 1.73113 68.6349 1.70454Z" fill="#FFD042"/>
<path d="M67.229 1.36652C67.3255 1.38829 67.4222 1.40961 67.5184 1.43207C67.4222 1.40984 67.3255 1.38852 67.229 1.36652Z" fill="#FFD042"/>
<path d="M71.2202 2.4326C71.3357 2.46835 71.4507 2.50479 71.566 2.54123C71.4507 2.50479 71.3357 2.46812 71.2202 2.4326Z" fill="#FFD042"/>
<path d="M65.9974 1.1007C66.0889 1.11926 66.1799 1.13897 66.2711 1.15799C66.1796 1.13897 66.0887 1.11926 65.9974 1.1007Z" fill="#FFD042"/>
<path d="M86.5198 9.92613C86.7455 10.0843 86.9699 10.2442 87.1931 10.4058C86.9699 10.2442 86.7455 10.0843 86.5198 9.92613Z" fill="#FFD042"/>
<path d="M72.4263 2.82034C72.523 2.85266 72.6204 2.88405 72.7169 2.91682C72.6204 2.88405 72.523 2.85266 72.4263 2.82034Z" fill="#FFD042"/>
<path d="M60.5814 0.280266C60.6387 0.285995 60.696 0.29287 60.7532 0.298828C60.696 0.29287 60.6387 0.285995 60.5814 0.280266Z" fill="#FFD042"/>
<path d="M57.8091 0.070816C57.8428 0.0724202 57.8763 0.074941 57.91 0.0765452C57.8763 0.074941 57.8428 0.0724202 57.8091 0.070816Z" fill="#FFD042"/>
<path d="M63.3115 0.62471C63.388 0.636398 63.4641 0.649002 63.5406 0.660919C63.4641 0.649002 63.388 0.636398 63.3115 0.62471Z" fill="#FFD042"/>
<path d="M64.5522 0.828651C64.6498 0.845839 64.7477 0.862339 64.8451 0.879985C64.7477 0.862339 64.6498 0.84561 64.5522 0.828651Z" fill="#FFD042"/>
<path d="M69.8546 2.03178C69.9508 2.0586 70.0475 2.08472 70.1435 2.11222C70.0475 2.08472 69.9508 2.0586 69.8546 2.03178Z" fill="#FFD042"/>
<path d="M73.7498 3.28075C73.8758 3.32635 74.0012 3.3731 74.1268 3.41962C74.0014 3.37287 73.8758 3.32635 73.7498 3.28075Z" fill="#FFD042"/>
<path d="M79.7874 5.89186C79.9682 5.9833 80.1481 6.07588 80.3275 6.16915C80.1479 6.07588 79.968 5.9833 79.7874 5.89186Z" fill="#FFD042"/>
<path d="M80.9717 6.50925C81.1238 6.59083 81.2756 6.67287 81.4268 6.75606C81.2756 6.67287 81.1238 6.59083 80.9717 6.50925Z" fill="#FFD042"/>
<path d="M85.4474 9.19325C85.6135 9.30394 85.7794 9.41486 85.9444 9.52715C85.7794 9.41463 85.6135 9.30394 85.4474 9.19325Z" fill="#FFD042"/>
<path d="M84.3552 8.48421C84.5692 8.61965 84.7819 8.75646 84.9938 8.89488C84.7819 8.75646 84.5692 8.61942 84.3552 8.48421Z" fill="#FFD042"/>
<path d="M82.1079 7.1367C82.3082 7.25037 82.5073 7.36564 82.706 7.4816C82.5073 7.36564 82.3082 7.25037 82.1079 7.1367Z" fill="#FFD042"/>
<path d="M74.9428 3.72969C75.0395 3.76727 75.1367 3.80371 75.2332 3.84198C75.1369 3.80394 75.0395 3.76727 74.9428 3.72969Z" fill="#FFD042"/>
<path d="M78.6295 5.32307C78.7734 5.39159 78.9168 5.4608 79.0601 5.5307C78.9168 5.4608 78.7734 5.39159 78.6295 5.32307Z" fill="#FFD042"/>
<path d="M76.2206 4.24532C76.3558 4.30192 76.4908 4.35944 76.6256 4.41719C76.4908 4.35944 76.3561 4.30215 76.2206 4.24532Z" fill="#FFD042"/>
<path d="M77.3956 4.75407C77.5468 4.82145 77.6978 4.88951 77.8482 4.95826C77.6976 4.88951 77.5466 4.82145 77.3956 4.75407Z" fill="#FFD042"/>
<path d="M94.5012 16.7342C94.1595 16.3815 93.8128 16.0336 93.462 15.6901C93.8128 16.0339 94.1595 16.3815 94.5012 16.7342Z" fill="#FFD042"/>
<path d="M100.205 23.6706C100.468 24.0497 100.727 24.4317 100.981 24.8174C100.528 24.128 100.06 23.4493 99.5763 22.7822C99.7876 23.0739 99.995 23.3684 100.201 23.6644C100.202 23.6665 100.203 23.6686 100.205 23.6706Z" fill="#FFD042"/>
<path d="M55 74.6428C47.4847 74.6428 40.3118 74.1398 33.7448 73.2277C34.2054 76.0054 34.8735 78.713 35.734 81.3333C22.3733 79.6762 11.3149 76.3553 4.70619 72.0873C4.69565 72.0805 4.68556 72.0738 4.67525 72.067C4.46488 71.9308 4.25977 71.7933 4.05856 71.6551C4.03061 71.6359 4.00242 71.6169 3.97469 71.5979C3.76592 71.4532 3.56173 71.308 3.36304 71.1613C3.34379 71.1471 3.32523 71.1326 3.30598 71.1184C3.13388 70.9908 2.96658 70.862 2.80227 70.733C2.75781 70.6979 2.71336 70.6629 2.66936 70.6278C2.48969 70.4841 2.31323 70.34 2.14319 70.1944C3.86217 76.1842 6.5684 81.752 10.0792 86.7153C12.8214 87.9269 15.9647 89.0251 19.4405 89.9859C20.6532 90.3212 21.9042 90.6405 23.1956 90.9409C23.909 91.1068 24.6338 91.2675 25.3699 91.4221C25.3699 91.4221 25.3665 91.4153 25.3603 91.402C25.3477 91.3754 25.3229 91.3231 25.2888 91.2484C25.1692 90.9874 24.9334 90.4532 24.6898 89.7941C24.6201 89.6058 24.55 89.4073 24.4817 89.202C24.4134 88.9966 24.3469 88.7847 24.285 88.5692C24.2291 88.3751 24.1776 88.1783 24.1308 87.9814C23.9958 87.4136 23.9055 86.8443 23.9058 86.334C23.9058 86.2359 23.9092 86.1399 23.9163 86.0466C23.9291 85.8768 23.9557 85.717 23.9945 85.5674C24.0307 85.4271 24.0811 85.2981 24.1434 85.1796C24.1725 85.1242 24.2046 85.0712 24.2399 85.0215C24.492 84.6656 24.9024 84.4513 25.5358 84.4637C25.6653 84.4662 25.795 84.4711 25.9254 84.4782C25.9616 84.48 25.9981 84.4834 26.0343 84.4857C26.1285 84.4917 26.2226 84.4974 26.3173 84.5054C26.3673 84.5098 26.4177 84.5157 26.4676 84.5206C26.5488 84.5283 26.6294 84.5359 26.7108 84.5453C26.769 84.5522 26.8274 84.5604 26.8856 84.568C26.9597 84.5776 27.0337 84.5866 27.1082 84.5973C27.1689 84.606 27.2301 84.6166 27.291 84.6262C27.3632 84.6377 27.4352 84.6484 27.5078 84.661C27.5708 84.672 27.6343 84.6844 27.6976 84.6961C27.7686 84.7092 27.8394 84.722 27.9107 84.7362C27.9755 84.749 28.0406 84.7635 28.1057 84.7772C28.1756 84.7919 28.2453 84.8063 28.3154 84.8219C28.3821 84.8368 28.449 84.8531 28.5159 84.8689C28.5851 84.8852 28.6541 84.9012 28.7235 84.9184C28.7916 84.9353 28.8601 84.9535 28.9284 84.9713C28.9967 84.989 29.0648 85.0064 29.1331 85.025C29.202 85.0437 29.2715 85.0634 29.3407 85.0829C29.4094 85.1022 29.478 85.1212 29.5467 85.1414C29.6152 85.1613 29.6838 85.1824 29.7523 85.203C29.8224 85.2241 29.8923 85.245 29.9627 85.267C30.0312 85.2883 30.0997 85.3105 30.1682 85.3327C30.239 85.3554 30.3098 85.3781 30.3809 85.4015C30.4496 85.4242 30.5184 85.4478 30.5874 85.4711C30.6589 85.4954 30.7304 85.5195 30.8019 85.5445C30.8699 85.5681 30.9382 85.5926 31.0065 85.6171C31.0798 85.6432 31.1529 85.6691 31.2263 85.696C31.2934 85.7205 31.3606 85.7457 31.4279 85.7707C31.5029 85.7986 31.5776 85.8263 31.6528 85.855C31.719 85.8802 31.7852 85.9059 31.8514 85.9315C31.9284 85.9613 32.0052 85.9911 32.0824 86.0216C32.1471 86.047 32.2119 86.0732 32.2768 86.0991C32.3558 86.1307 32.4349 86.1625 32.5142 86.1948C32.5774 86.2205 32.6407 86.2469 32.7039 86.273C32.786 86.3069 32.868 86.3408 32.9501 86.3754C33.0103 86.4006 33.0708 86.4265 33.1311 86.452C33.2168 86.4884 33.3028 86.5248 33.3887 86.562C33.446 86.5867 33.5035 86.6117 33.561 86.6367C33.6506 86.6756 33.7405 86.7148 33.8303 86.7545C33.8844 86.7783 33.9387 86.8024 33.993 86.8267C34.0865 86.8684 34.1805 86.9101 34.2744 86.9525C34.3255 86.9754 34.3766 86.9985 34.428 87.0219C34.5265 87.0666 34.6255 87.1115 34.7245 87.1569C34.7692 87.1773 34.8139 87.1979 34.8583 87.2185C34.966 87.268 35.074 87.318 35.1821 87.3684C35.2177 87.3849 35.253 87.4014 35.2885 87.4181C35.4058 87.4729 35.5236 87.5281 35.6414 87.5836C35.6687 87.5964 35.6962 87.6093 35.7234 87.6223C35.8511 87.6826 35.9787 87.7433 36.1068 87.8043C36.1231 87.8121 36.1394 87.8199 36.1554 87.8274C37.1117 88.2837 38.0816 88.7594 39.0635 89.2373C37.766 86.7112 36.6392 84.0831 35.7402 81.3487C41.7565 82.0939 48.2408 82.5 55 82.5C61.1713 82.5 67.1135 82.1615 72.6791 81.5357L79.8571 80.5363C92.5263 78.4142 102.568 74.72 107.858 70.1901C106.14 76.1787 103.435 81.7456 99.9259 86.7086C89.5013 91.3174 73.2609 94.5624 55 94.2858C49.4826 94.2022 44.0938 91.6852 39.0287 89.2203C41.4306 93.9036 44.484 98.1972 48.0703 101.982C48.0799 101.982 48.0893 101.983 48.0987 101.983C48.1039 101.989 48.1097 101.994 48.1149 102C50.3718 102.094 52.6692 102.143 55 102.143C67.7224 102.143 79.4533 100.697 88.9348 98.2662C82.5335 103.294 74.9932 106.937 66.7627 108.735C91.4857 103.348 110 81.3379 110 55C110 56.8377 109.906 58.6534 109.73 60.4448C102.881 68.6434 80.9797 74.6428 55 74.6428Z" fill="#FFD042"/>
<path d="M56.5659 0.0235992C56.4667 0.0208492 56.3672 0.0183284 56.2678 0.0162659C56.2756 0.016495 56.2833 0.0167242 56.2909 0.0169534C56.3826 0.0187867 56.4742 0.0208492 56.5659 0.0235992Z" fill="#FFD042"/>
<path d="M99.1604 22.2149C99.1778 22.2385 99.1943 22.2628 99.2117 22.2864C99.3094 22.4182 99.4072 22.5498 99.5037 22.6824C99.1861 22.2459 98.8627 21.8141 98.5327 21.3874C98.7445 21.661 98.9528 21.9377 99.1593 22.2154C99.1597 22.2152 99.16 22.2152 99.1604 22.2149Z" fill="#FFD042"/>
<path d="M59.3652 0.172102C59.2946 0.166602 59.224 0.160643 59.1532 0.155373C59.1924 0.158352 59.2313 0.162018 59.2705 0.164998C59.3024 0.167518 59.3338 0.16981 59.3652 0.172102Z" fill="#FFD042"/>
<path d="M101.945 26.3579C102.321 26.975 102.69 27.5972 103.043 28.2295C92.9279 33.6949 75.1962 37.3214 54.9999 37.3214C49.9393 37.3214 45.0335 37.0936 40.3633 36.6662C38.0031 40.7447 36.1519 45.1536 34.8963 49.808C34.9004 49.8085 34.9043 49.8092 34.9084 49.8096C34.9082 49.8105 34.908 49.8115 34.9078 49.8124C36.8204 50.0613 38.78 50.2771 40.785 50.4547L40.7845 50.4531C51.2432 51.1619 58.0799 55.5899 64.5392 56.7467C66.266 57.0561 67.5276 55.1614 66.5431 53.7094L64.5672 50.7953C84.0943 49.6565 100.226 45.0883 107.615 38.9526C108.556 42.0416 109.233 45.2451 109.62 48.5373C108.609 39.8982 105.597 31.8721 101.057 24.9329C101.364 25.402 101.664 25.8759 101.957 26.3551C101.953 26.3562 101.949 26.3569 101.945 26.3579ZM57.7499 51.3334C56.2313 51.3334 54.9999 50.5125 54.9999 49.5C54.9999 48.4876 56.2313 47.6667 57.7499 47.6667C59.2686 47.6667 60.4999 48.4876 60.4999 49.5C60.4999 50.5125 59.2686 51.3334 57.7499 51.3334Z" fill="#FFD042"/>
<path d="M62.1248 0.458549C62.0268 0.445945 61.9284 0.434028 61.8301 0.421883C61.9216 0.433112 62.013 0.444341 62.1042 0.456028C62.1111 0.456945 62.118 0.457862 62.1248 0.458549Z" fill="#FFD042"/>
<path d="M56.3173 109.983C56.4648 109.98 56.6117 109.974 56.7591 109.969C56.6117 109.974 56.4648 109.98 56.3173 109.983Z" fill="#FFD042"/>
<path d="M44.3601 108.968C44.0438 108.906 43.7283 108.841 43.4141 108.773C43.7285 108.841 44.0438 108.906 44.3601 108.968Z" fill="#FF9300"/>
<path d="M53.6825 109.983C53.535 109.98 53.3881 109.974 53.2407 109.969C53.3881 109.974 53.535 109.98 53.6825 109.983Z" fill="#FF9300"/>
<path d="M45.5443 109.187C45.246 109.136 44.9485 109.08 44.6517 109.024C44.9485 109.08 45.2457 109.136 45.5443 109.187Z" fill="#FF9300"/>
<path d="M48.5271 109.619C47.64 109.515 46.7591 109.39 45.8855 109.244C46.7593 109.39 47.64 109.515 48.5271 109.619Z" fill="#FF9300"/>
<path d="M51.0737 109.859C50.8851 109.846 50.6963 109.832 50.5081 109.816C50.6963 109.832 50.8849 109.846 51.0737 109.859Z" fill="#FF9300"/>
<path d="M49.7878 109.753C49.5903 109.734 49.3927 109.716 49.1959 109.695C49.3927 109.716 49.5905 109.734 49.7878 109.753Z" fill="#FF9300"/>
<path d="M52.3735 109.936C52.1973 109.928 52.0215 109.918 51.8458 109.908C52.0215 109.918 52.1973 109.928 52.3735 109.936Z" fill="#FF9300"/>
<path d="M25.0539 101.119C24.192 100.558 23.3468 99.9735 22.5191 99.3664C22.4281 99.2998 22.3376 99.2328 22.2468 99.1657C21.8497 98.8705 21.455 98.5724 21.0664 98.2669C21.0659 98.2667 21.0655 98.2662 21.065 98.266C21.0652 98.266 21.0657 98.2662 21.0659 98.2662C21.5084 98.3796 21.9574 98.4903 22.4095 98.5992C22.479 98.6159 22.5482 98.6329 22.6181 98.6494C23.0853 98.761 23.5567 98.8705 24.0339 98.9771C24.0355 98.9775 24.0368 98.9778 24.0384 98.978C31.1206 100.562 39.2895 101.611 48.07 101.981C44.4838 98.1968 41.4304 93.9031 39.0285 89.2199C38.0586 88.7478 37.1007 88.2778 36.1561 87.8272C36.1398 87.8194 36.1235 87.8116 36.1075 87.8041C35.9794 87.7431 35.8517 87.6824 35.7241 87.6221C35.6968 87.6093 35.6693 87.5962 35.6421 87.5834C35.5243 87.5277 35.4065 87.4727 35.2891 87.4179C35.2536 87.4014 35.2181 87.3847 35.1828 87.3682C35.0746 87.3178 34.9667 87.268 34.859 87.2183C34.8143 87.1977 34.7696 87.1771 34.7252 87.1567C34.6262 87.1113 34.5274 87.0664 34.4286 87.0217C34.3775 86.9985 34.3262 86.9754 34.2751 86.9523C34.1811 86.9099 34.0874 86.8681 33.9937 86.8264C33.9394 86.8024 33.885 86.7781 33.831 86.7542C33.7409 86.7146 33.6513 86.6754 33.5617 86.6365C33.5042 86.6115 33.4466 86.5863 33.3894 86.5618C33.3034 86.5246 33.2175 86.4882 33.1318 86.4517C33.0713 86.4261 33.011 86.4004 32.9507 86.3752C32.8685 86.3406 32.7864 86.3067 32.7046 86.2728C32.6414 86.2466 32.5779 86.2203 32.5149 86.1946C32.4356 86.1623 32.3565 86.1305 32.2774 86.0988C32.2126 86.0729 32.1477 86.0468 32.0831 86.0214C32.0059 85.9909 31.9291 85.9611 31.8521 85.9313C31.7859 85.9056 31.7196 85.88 31.6534 85.8548C31.5782 85.8261 31.5035 85.7984 31.4286 85.7704C31.3615 85.7455 31.2941 85.7203 31.2269 85.6957C31.1536 85.6689 31.0803 85.643 31.0072 85.6169C30.9389 85.5926 30.8706 85.5681 30.8025 85.5443C30.7308 85.5193 30.6595 85.4952 30.588 85.4709C30.5193 85.4475 30.4503 85.4239 30.3815 85.4013C30.3105 85.3776 30.2397 85.3552 30.1689 85.3325C30.1004 85.3105 30.0316 85.2883 29.9633 85.2667C29.8932 85.2447 29.8231 85.2239 29.7529 85.2028C29.6844 85.1822 29.6157 85.1611 29.5474 85.1411C29.4784 85.121 29.4099 85.102 29.3414 85.0827C29.2721 85.0632 29.2027 85.0433 29.1337 85.0247C29.0652 85.0062 28.9971 84.989 28.9291 84.9711C28.8608 84.9535 28.7923 84.9351 28.7242 84.9182C28.6548 84.901 28.5858 84.8852 28.5166 84.8687C28.4497 84.8529 28.3827 84.8366 28.3161 84.8217C28.2459 84.8059 28.1763 84.7917 28.1064 84.777C28.0413 84.7633 27.9762 84.7488 27.9114 84.736C27.8401 84.7218 27.7693 84.7092 27.6982 84.6959C27.635 84.6842 27.5715 84.6716 27.5085 84.6608C27.4361 84.6482 27.3639 84.6374 27.2917 84.626C27.2307 84.6164 27.1695 84.6058 27.1088 84.5971C27.0343 84.5863 26.9605 84.5774 26.8863 84.5678C26.8281 84.5602 26.7694 84.5517 26.7114 84.5451C26.6301 84.5357 26.5492 84.5284 26.4683 84.5203C26.4181 84.5155 26.3679 84.5096 26.318 84.5052C26.2233 84.4972 26.1291 84.4912 26.0349 84.4855C25.9987 84.4832 25.9623 84.48 25.9261 84.4779C25.7957 84.4711 25.6657 84.466 25.5365 84.4635C24.9031 84.4511 24.4926 84.6654 24.2406 85.0213C24.2053 85.0713 24.1734 85.1242 24.1441 85.1794C24.0817 85.2979 24.0316 85.4267 23.9951 85.5672C23.9564 85.717 23.9298 85.8765 23.917 86.0464C23.9099 86.1396 23.9067 86.2356 23.9064 86.3337C23.9062 86.8439 23.9965 87.4131 24.1315 87.9812C24.1782 88.1781 24.2298 88.3749 24.2857 88.569C24.3478 88.7844 24.414 88.9964 24.4823 89.2017C24.5506 89.4071 24.6207 89.6055 24.6904 89.7939C24.934 90.453 25.1698 90.9872 25.2895 91.2482C25.3236 91.3227 25.3484 91.3752 25.361 91.4017C25.3674 91.415 25.3706 91.4219 25.3706 91.4219C24.6345 91.267 23.9096 91.1066 23.1962 90.9407C21.9049 90.6402 20.6536 90.321 19.4411 89.9857C15.9654 89.0248 12.8221 87.9267 10.0799 86.7153C6.56883 81.7518 3.86283 76.1839 2.14385 70.1942C2.14385 70.1942 2.14385 70.1942 2.14385 70.194C2.3139 70.3395 2.49035 70.4836 2.67002 70.6273C2.71402 70.6624 2.75848 70.6975 2.80294 70.7325C2.96725 70.8618 3.13454 70.9903 3.30665 71.118C3.3259 71.1322 3.34446 71.1466 3.36371 71.1608C3.5624 71.3075 3.76658 71.4528 3.97535 71.5974C4.00308 71.6166 4.03127 71.6357 4.05923 71.6547C4.26044 71.7929 4.46554 71.9301 4.67592 72.0665C4.68623 72.0731 4.69654 72.08 4.70685 72.0869C11.3156 76.3549 22.374 79.6758 35.7346 81.3329C34.8741 78.7126 34.2061 76.005 33.7455 73.2272C19.6453 71.269 8.34373 67.4208 2.46927 62.5925C2.44842 62.5753 2.42825 62.5581 2.4074 62.5412C2.23071 62.3948 2.05906 62.2476 1.89246 62.0996C1.86542 62.0758 1.83792 62.0519 1.8111 62.0279C1.63212 61.8667 1.45819 61.7047 1.29112 61.5416C1.26683 61.518 1.24415 61.4941 1.22008 61.4703C1.08167 61.3335 0.947833 61.1958 0.817896 61.0576C0.778021 61.0152 0.738146 60.9725 0.698958 60.9299C0.551375 60.769 0.407687 60.6077 0.271792 60.4452C0.271562 60.445 0.271333 60.4448 0.271104 60.4443C0.0941875 58.6534 0 56.8377 0 55C0 81.3386 18.5155 103.349 43.2394 108.735C36.7015 107.308 30.6006 104.713 25.1588 101.187C25.1238 101.165 25.0887 101.142 25.0539 101.119ZM34.8333 89.8333C37.0487 91.132 38.6146 92.6979 38.5 95.3333C38.3854 97.9688 27.8437 92.5833 27.5 89.8333C27.1562 87.0833 32.0357 88.1932 34.8333 89.8333Z" fill="#FF9300"/>
<path d="M58.3021 0.0994644C58.5202 0.112527 58.7382 0.126277 58.9556 0.141631C58.7382 0.126277 58.5202 0.112298 58.3021 0.0994644Z" fill="#FF9300"/>
<path d="M55 0C55.3291 0 55.6575 0.00320833 55.9854 0.00916667C55.6575 0.00320833 55.3291 0 55 0Z" fill="#FF9300"/>
<path d="M51.0051 0.144603C51.268 0.125582 51.5313 0.108624 51.7953 0.0932693C51.5315 0.108624 51.2682 0.125811 51.0051 0.144603Z" fill="#FF9300"/>
<path d="M55.0001 0C54.6772 0 54.355 0.0034375 54.0332 0.0089375C54.0786 0.00825 54.1242 0.00847917 54.1698 0.0075625C54.4459 0.00275 54.7228 0 55.0001 0Z" fill="#FF9300"/>
<path d="M101.946 26.3578C101.949 26.3572 101.954 26.3562 101.957 26.3556C101.665 25.8766 101.364 25.4027 101.058 24.9333C101.032 24.8946 101.007 24.8561 100.981 24.8176C100.728 24.4317 100.468 24.0497 100.205 23.6709C100.812 24.5472 101.389 25.4451 101.946 26.3578Z" fill="#FF9300"/>
<path d="M79.5958 5.80777C79.6214 5.82061 79.6471 5.83321 79.6728 5.84604C79.8566 5.93863 80.0394 6.03236 80.2219 6.12677C80.355 6.19552 80.4879 6.2645 80.6204 6.33417C80.7139 6.38344 80.8072 6.43317 80.9002 6.48313C81.1229 6.60206 81.3445 6.72238 81.5655 6.84429C81.5907 6.85827 81.6159 6.87225 81.6411 6.88623C81.7676 6.95636 81.895 7.02533 82.0208 7.09661C82.0655 7.12181 82.1123 7.14359 82.1569 7.16902C83.2796 7.80794 84.3766 8.4865 85.4482 9.20036C85.4627 9.20998 85.4764 9.22075 85.4909 9.23038C83.9277 9.3005 82.3824 9.43846 80.856 9.63669C79.7223 9.83675 78.5673 10.024 77.3914 10.1981C64.6626 12.6858 53.5095 19.5658 45.5645 29.1924C45.5668 29.1924 45.5693 29.1926 45.5716 29.1929C45.5712 29.1935 45.5707 29.194 45.57 29.1947C48.6374 29.3711 51.7868 29.4642 54.9998 29.4642C58.9802 29.4642 62.8652 29.3235 66.6153 29.0556C67.3317 29.0045 68.043 28.9486 68.7493 28.8883L75.4497 28.1605C84.7985 26.9202 92.9376 24.8479 99.159 22.2154C98.9526 21.9377 98.744 21.6613 98.5325 21.3874C98.5252 21.378 98.5181 21.3684 98.5107 21.359C98.3421 21.1413 98.1718 20.925 98.0001 20.71C97.9754 20.6791 97.9504 20.6484 97.9259 20.6177C97.6039 20.2164 97.2767 19.8195 96.9439 19.4276C96.9151 19.3935 96.8864 19.3593 96.8573 19.3252C96.6829 19.1208 96.5071 18.9175 96.3298 18.7158C96.3057 18.6883 96.2812 18.6613 96.2571 18.634C95.9267 18.2593 95.5912 17.8897 95.2508 17.5241C95.2032 17.473 95.1557 17.4215 95.1078 17.3706C94.9295 17.1804 94.7501 16.9913 94.5691 16.8039C94.5466 16.7805 94.5237 16.7576 94.5012 16.7344C94.1595 16.3818 93.8128 16.0339 93.462 15.6904C93.3964 15.6262 93.3309 15.5618 93.2649 15.4979C93.085 15.3237 92.9044 15.15 92.7222 14.9783C92.7 14.9573 92.6773 14.9369 92.6551 14.916C92.3024 14.5846 91.9451 14.2583 91.5839 13.9361C91.4994 13.8607 91.4148 13.7855 91.3298 13.7106C91.1508 13.5529 90.9714 13.3955 90.7901 13.2403C90.7809 13.2325 90.7718 13.2248 90.7626 13.217C90.3863 12.8945 90.005 12.5778 89.6202 12.2657C89.5153 12.1807 89.4101 12.0959 89.3046 12.0115C89.0342 11.7954 88.7613 11.5821 88.4868 11.371C88.3545 11.2693 88.2228 11.1671 88.0896 11.0667C87.9182 10.9374 87.7454 10.81 87.5724 10.6826C87.4463 10.5898 87.3198 10.4977 87.1929 10.406C86.9697 10.2444 86.7453 10.0847 86.5196 9.92636C86.3285 9.79252 86.1369 9.65892 85.9439 9.52738C85.7792 9.41486 85.613 9.30417 85.4469 9.19348C85.2963 9.09311 85.145 8.99388 84.9933 8.89511C84.7814 8.75692 84.5685 8.61988 84.3546 8.48444C84.1447 8.35152 83.9341 8.21952 83.7221 8.08959C83.564 7.99242 83.4048 7.89663 83.2455 7.80106C83.0663 7.69359 82.8862 7.58748 82.7056 7.48183C82.5069 7.36565 82.3077 7.25061 82.1074 7.13694C81.8812 7.00861 81.6544 6.88142 81.4264 6.75606C81.2751 6.67311 81.1234 6.59106 80.9712 6.50925C80.7574 6.39444 80.5425 6.28146 80.327 6.1694C80.1476 6.07613 79.9675 5.98354 79.7869 5.89211C79.5454 5.76996 79.3031 5.64942 79.0595 5.53071C78.9163 5.46104 78.7728 5.39184 78.6289 5.32309C78.3697 5.19956 78.1092 5.07788 77.8477 4.95825C77.6971 4.8895 77.5461 4.82144 77.3951 4.75406C77.1396 4.63994 76.8829 4.52765 76.6253 4.41719C76.4906 4.35944 76.3556 4.30215 76.2204 4.24531C75.8927 4.10804 75.5638 3.97283 75.2329 3.84198C75.1366 3.80371 75.0393 3.76727 74.9425 3.72969C74.6714 3.62427 74.3994 3.52069 74.1265 3.4194C74.0009 3.37288 73.8755 3.32636 73.7495 3.28052C73.4067 3.15631 73.0625 3.0344 72.7166 2.91661C72.6202 2.88384 72.5228 2.85244 72.4261 2.82013C72.1403 2.72479 71.8536 2.63152 71.5658 2.54077C71.4505 2.50433 71.3355 2.4679 71.22 2.43215C70.8625 2.32192 70.5038 2.2149 70.1433 2.112C70.0473 2.0845 69.9506 2.05838 69.8544 2.03156C69.5528 1.94723 69.2503 1.86519 68.9464 1.7859C68.8426 1.75863 68.7388 1.7309 68.6347 1.70454C68.2639 1.6099 67.8918 1.51892 67.5182 1.43206C67.422 1.40961 67.3253 1.38829 67.2288 1.36652C66.9105 1.29434 66.5912 1.22467 66.2709 1.15798C66.1797 1.13896 66.0887 1.11925 65.9972 1.10069C65.6145 1.023 65.2305 0.949668 64.845 0.880002C64.7476 0.862356 64.6497 0.845856 64.5521 0.828668C64.2159 0.769772 63.8788 0.713856 63.5404 0.661148C63.464 0.649231 63.3877 0.636398 63.3112 0.624939C62.9175 0.565127 62.5222 0.510356 62.1257 0.459023C68.3347 1.26431 74.2159 3.10934 79.5958 5.80777Z" fill="#FF9300"/>
<path d="M100.201 23.6645C99.9951 23.3684 99.7877 23.0739 99.5764 22.7822C99.5523 22.7487 99.528 22.7157 99.5037 22.6825C99.4073 22.5498 99.3094 22.4182 99.2118 22.2865C99.5482 22.7404 99.8784 23.1995 100.201 23.6645Z" fill="#FF9300"/>
<path d="M57.9609 0.0795201C57.9439 0.0786034 57.9269 0.0774576 57.91 0.0765409C57.8763 0.0747076 57.8428 0.0724159 57.8092 0.0708117C57.6449 0.0625617 57.4801 0.0566034 57.3156 0.0497284C57.531 0.0586659 57.7461 0.0680617 57.9609 0.0795201Z" fill="#FF9300"/>
<path d="M59.9642 0.222751C59.7648 0.204876 59.5652 0.187918 59.3652 0.172105C59.3338 0.169584 59.3021 0.167522 59.2708 0.165001C59.5022 0.183105 59.7334 0.202126 59.9642 0.222751Z" fill="#FF9300"/>
<path d="M62.1042 0.45604C62.013 0.444353 61.9215 0.433124 61.8301 0.421894C61.614 0.395082 61.3976 0.369186 61.1808 0.344894C61.4893 0.379499 61.7973 0.416394 62.1042 0.45604Z" fill="#FF9300"/>
<path d="M61.0002 0.325415C60.918 0.316478 60.8355 0.307311 60.7532 0.298603C60.6959 0.292644 60.6386 0.285769 60.5813 0.28004C60.464 0.268123 60.3462 0.25804 60.2286 0.246811C60.4865 0.271332 60.7436 0.297457 61.0002 0.325415Z" fill="#FF9300"/>
<path d="M56.9722 0.0355232C56.837 0.0307107 56.7013 0.0272732 56.5656 0.0233774C56.474 0.0208565 56.3823 0.0185649 56.2906 0.0165024C56.5182 0.0220024 56.7455 0.0275024 56.9722 0.0355232Z" fill="#FF9300"/>
<path d="M53.7485 0.0155792C53.7427 0.0155792 53.737 0.0158084 53.7313 0.0160376C53.6431 0.0181001 53.5548 0.0199334 53.4666 0.0222251C53.3305 0.0258917 53.1941 0.0300167 53.0582 0.0348292C53.2879 0.0268084 53.5179 0.0208501 53.7485 0.0155792Z" fill="#FF9300"/>
<path d="M52.7512 0.0469666C52.5821 0.0538416 52.413 0.0604874 52.2443 0.0687374C52.1762 0.0721749 52.1082 0.0760707 52.0403 0.0797374C52.2768 0.0671332 52.514 0.0563624 52.7512 0.0469666Z" fill="#FF9300"/>
<path d="M54.9999 0C54.7227 0 54.4458 0.00275 54.1697 0.0075625C54.4461 0.00366667 54.7227 0 54.9999 0Z" fill="#FF7400"/>
<path d="M81.5654 6.84429C81.3445 6.72237 81.1229 6.60206 80.9001 6.48312C81.1227 6.60229 81.3447 6.72214 81.5654 6.84429Z" fill="#FF7400"/>
<path d="M85.491 9.23037C85.4766 9.22075 85.4629 9.20998 85.4484 9.20035C84.3768 8.4865 83.2798 7.80794 82.1571 7.16902C82.1124 7.14358 82.0657 7.12181 82.021 7.0966C81.895 7.02533 81.7678 6.95636 81.6413 6.88623C82.7548 7.50452 83.8447 8.16017 84.9092 8.85156C83.5938 9.13206 82.2392 9.39262 80.8561 9.63668C82.3824 9.43846 83.9279 9.3005 85.491 9.23037Z" fill="#FF7400"/>
<path d="M79.6728 5.84606C79.6472 5.83322 79.6215 5.82039 79.5958 5.80779C79.6215 5.82062 79.6472 5.83322 79.6728 5.84606Z" fill="#FF7400"/>
<path d="M80.6203 6.33417C80.4879 6.2645 80.355 6.19552 80.2218 6.12677C80.355 6.19575 80.4879 6.26427 80.6203 6.33417Z" fill="#FF7400"/>
<path d="M12.0491 22.7189C12.2627 22.8035 12.4777 22.8876 12.6954 22.9708C12.8157 23.0168 12.9371 23.0624 13.0586 23.108C13.263 23.1848 13.4695 23.2609 13.6773 23.3363C13.8034 23.3821 13.929 23.4279 14.0562 23.4733C14.278 23.5524 14.5026 23.6305 14.7281 23.7082C14.8411 23.7472 14.9524 23.7866 15.0663 23.8251C15.3895 23.9346 15.7165 24.043 16.0472 24.1498C16.1883 24.1954 16.3322 24.2401 16.4746 24.2853C16.676 24.3492 16.8777 24.4129 17.0818 24.4759C17.2574 24.53 17.4348 24.5832 17.6121 24.6366C17.7847 24.6884 17.9582 24.7399 18.1326 24.7913C18.3262 24.8481 18.5206 24.9045 18.7163 24.9604C18.8721 25.0048 19.0293 25.0486 19.1867 25.0926C19.4001 25.1522 19.6132 25.2118 19.8291 25.2702C19.9384 25.2998 20.0496 25.3287 20.1596 25.3582C21.0169 25.5872 21.8932 25.8081 22.7886 26.0201C22.8674 26.0388 22.9458 26.0576 23.0251 26.0762C23.3188 26.1449 23.6147 26.2128 23.9124 26.2799C23.983 26.2957 24.0536 26.3116 24.1244 26.3274C24.4438 26.3986 24.7649 26.469 25.0887 26.538C25.0924 26.5387 25.0958 26.5396 25.0995 26.5403C31.2434 27.8493 38.1627 28.7668 45.565 29.1926C53.5099 19.566 64.663 12.686 77.3919 10.1984C70.5187 11.2166 62.9564 11.7858 55.0002 11.7858C44.0318 11.7858 33.8041 10.7087 25.1121 8.85638C28.757 6.48909 32.6984 4.54048 36.8679 3.07817C36.3722 3.25027 35.8783 3.42673 35.3897 3.6135C35.1081 3.72098 34.8287 3.83282 34.5494 3.94465C33.833 4.23203 33.124 4.5343 32.4229 4.85078C32.1832 4.95894 31.9419 5.06436 31.7041 5.17573C30.8259 5.58732 29.9583 6.01746 29.1062 6.4735C29.0666 6.49459 29.0256 6.51361 28.9861 6.53492C28.042 7.04321 27.1145 7.57923 26.2045 8.14001C26.1323 8.18446 26.0622 8.23236 25.9902 8.27728C25.1877 8.77709 24.3996 9.29799 23.6252 9.83721C23.4593 9.95271 23.2957 10.0712 23.1312 10.1885C22.4285 10.6895 21.7378 11.2058 21.0602 11.7384C20.917 11.8509 20.7728 11.962 20.6307 12.0757C18.1699 14.0498 15.8812 16.2289 13.7935 18.5905C13.7138 18.6808 13.6361 18.7727 13.5568 18.8636C12.9415 19.5688 12.3441 20.29 11.765 21.0263C11.679 21.1356 11.5926 21.2442 11.5074 21.354C11.2837 21.6427 11.0655 21.9363 10.8467 22.2289C11.1435 22.3543 11.4455 22.4783 11.751 22.6011C11.8493 22.6405 11.9497 22.6795 12.0491 22.7189Z" fill="#FF7400"/>
<path d="M41.5949 1.65298C41.5127 1.6736 41.4283 1.68941 41.3461 1.71027C40.3288 1.97037 39.3244 2.26302 38.3305 2.57904C38.0969 2.65329 37.8678 2.73694 37.6356 2.81416C37.6127 2.82173 37.5903 2.82998 37.5676 2.83754C38.9639 2.36912 40.3849 1.95456 41.8287 1.59775C41.7512 1.61677 41.6726 1.6335 41.5949 1.65298Z" fill="#FF7400"/>
<path d="M103.043 28.2294C102.69 27.5972 102.322 26.975 101.946 26.3578C101.389 25.4453 100.812 24.5472 100.205 23.6706C100.204 23.6686 100.202 23.6665 100.201 23.6644C99.8784 23.1995 99.5482 22.7407 99.2118 22.2865C99.1944 22.2629 99.1781 22.2386 99.1605 22.215C99.1602 22.2152 99.1598 22.2152 99.1593 22.2154C92.9379 24.8479 84.7988 26.9202 75.4499 28.1605L68.7496 28.8883C68.0433 28.9488 67.3319 29.0045 66.6156 29.0556C62.8655 29.3235 58.9804 29.4642 55 29.4642C51.7871 29.4642 48.6379 29.3712 45.5703 29.1947C43.6405 31.5324 41.8956 34.0274 40.3684 36.6664C40.3176 36.6619 40.2674 36.6566 40.2165 36.652C40.2658 36.6566 40.3141 36.6616 40.3634 36.6662C45.0336 37.0936 49.9393 37.3214 55 37.3214C75.1963 37.3214 92.928 33.6948 103.043 28.2294Z" fill="#FFEDB9"/>
<path d="M11.2954 30.2695C11.1907 30.2262 11.0853 30.1831 10.9817 30.1395C11.0853 30.1831 11.1907 30.2262 11.2954 30.2695Z" fill="#FFEDB9"/>
<path d="M10.0261 29.7284C10.0121 29.7222 9.99788 29.716 9.98413 29.7099C9.99788 29.7163 10.0121 29.7222 10.0261 29.7284Z" fill="#FFEDB9"/>
<path d="M9.05025 29.282C8.95514 29.2373 8.86164 29.1922 8.76746 29.147C8.86141 29.1922 8.95491 29.2373 9.05025 29.282Z" fill="#FFEDB9"/>
<path d="M30.5655 35.4248C30.4416 35.4044 30.3174 35.3842 30.1938 35.3636C30.3174 35.3842 30.4416 35.4044 30.5655 35.4248Z" fill="#FFEDB9"/>
<path d="M12.3594 30.6964C12.2508 30.6542 12.1438 30.6114 12.0363 30.5688C12.1438 30.6114 12.2508 30.6542 12.3594 30.6964Z" fill="#FFEDB9"/>
<path d="M28.9416 35.1473C28.7714 35.117 28.6025 35.0859 28.4331 35.0551C28.6022 35.0861 28.7711 35.117 28.9416 35.1473Z" fill="#FFEDB9"/>
<path d="M27.5081 34.8826C27.341 34.8508 27.1735 34.8191 27.0073 34.7866C27.1735 34.8191 27.3408 34.8508 27.5081 34.8826Z" fill="#FFEDB9"/>
<path d="M6.95679 28.2294C6.962 28.2323 6.96793 28.2351 6.97338 28.238C6.96793 28.2351 6.96224 28.2323 6.95679 28.2294Z" fill="#FFEDB9"/>
<path d="M24.3453 34.2338C24.1918 34.1999 24.0396 34.1653 23.887 34.1309C24.0396 34.1653 24.1918 34.1999 24.3453 34.2338Z" fill="#FFEDB9"/>
<path d="M21.4108 33.5406C21.3415 33.5232 21.2721 33.506 21.2031 33.4884C21.2719 33.506 21.3415 33.5232 21.4108 33.5406Z" fill="#FFEDB9"/>
<path d="M22.9919 33.9249C22.8406 33.8894 22.6889 33.8539 22.5386 33.8179C22.6889 33.8539 22.8406 33.8894 22.9919 33.9249Z" fill="#FFEDB9"/>
<path d="M25.8509 34.5549C25.7549 34.5352 25.6586 34.5155 25.563 34.4955C25.6586 34.5155 25.7549 34.5352 25.8509 34.5549Z" fill="#FFEDB9"/>
<path d="M20.0335 33.1817C19.8951 33.1444 19.758 33.1066 19.6205 33.069C19.758 33.1066 19.8951 33.1444 20.0335 33.1817Z" fill="#FFEDB9"/>
<path d="M32.2866 35.6948C32.1049 35.6675 31.9229 35.6402 31.7423 35.6123C31.9229 35.6402 32.1049 35.6675 32.2866 35.6948Z" fill="#FFEDB9"/>
<path d="M13.4663 31.116C13.4422 31.1071 13.4177 31.0984 13.3936 31.0897C13.4177 31.0984 13.4422 31.1071 13.4663 31.116Z" fill="#FFEDB9"/>
<path d="M14.8583 31.6087C14.7394 31.5679 14.62 31.5274 14.502 31.4861C14.62 31.5272 14.7394 31.5677 14.8583 31.6087Z" fill="#FFEDB9"/>
<path d="M16.0288 31.9995C15.9059 31.9596 15.7847 31.9195 15.663 31.8794C15.7849 31.9193 15.9062 31.9596 16.0288 31.9995Z" fill="#FFEDB9"/>
<path d="M18.766 32.8304C18.6315 32.7921 18.4965 32.7539 18.3632 32.7151C18.4965 32.7539 18.6315 32.7919 18.766 32.8304Z" fill="#FFEDB9"/>
<path d="M17.2707 32.3904C17.2276 32.3771 17.1841 32.3643 17.141 32.351C17.1841 32.3643 17.2276 32.3771 17.2707 32.3904Z" fill="#FFEDB9"/>
<path d="M8.10103 28.8214C8.00959 28.7758 7.9177 28.7302 7.82764 28.6843C7.91793 28.7302 8.00959 28.7755 8.10103 28.8214Z" fill="#FFEDB9"/>
<path d="M8.66429 25.3857C8.75069 25.2505 8.8364 25.1148 8.92417 24.9803C9.53215 24.0456 10.1626 23.1266 10.8265 22.2333C10.829 22.2301 10.8311 22.2267 10.8334 22.2234C11.1342 22.3506 11.4406 22.4762 11.7505 22.6007C11.445 22.4778 11.143 22.3541 10.8462 22.2285C10.8418 22.2267 10.8375 22.2251 10.8331 22.2232C9.4139 24.1324 8.12277 26.1408 6.95654 28.229C6.957 28.2283 6.95792 28.2269 6.95792 28.2269C7.49783 27.2612 8.07075 26.3159 8.66429 25.3857Z" fill="#FFEDB9"/>
<path d="M37.3003 36.3522C37.1069 36.3305 36.9135 36.3087 36.7212 36.2862C36.9135 36.3087 37.1069 36.3305 37.3003 36.3522Z" fill="#FFEDB9"/>
<path d="M33.7905 35.9125C33.6076 35.887 33.4259 35.8609 33.2439 35.835C33.4259 35.8609 33.6076 35.887 33.7905 35.9125Z" fill="#FFEDB9"/>
<path d="M38.8689 36.5209C38.6748 36.5012 38.4819 36.4806 38.2887 36.4602C38.4819 36.4806 38.6748 36.5012 38.8689 36.5209Z" fill="#FFEDB9"/>
<path d="M35.5151 36.1401C35.3733 36.1222 35.2309 36.1045 35.0898 36.0864C35.2312 36.1045 35.3733 36.1222 35.5151 36.1401Z" fill="#FFEDB9"/>
<path d="M24.1241 26.3271C24.0533 26.3113 23.9828 26.2955 23.9122 26.2797C23.9828 26.2955 24.0533 26.3113 24.1241 26.3271Z" fill="#FFEDB9"/>
<path d="M14.7283 23.7082C14.5028 23.6305 14.278 23.5524 14.0564 23.4733C14.278 23.5524 14.5028 23.6305 14.7283 23.7082Z" fill="#FFEDB9"/>
<path d="M16.0472 24.15C15.7165 24.043 15.3895 23.9348 15.0663 23.8253C15.3897 23.9348 15.7165 24.0432 16.0472 24.15Z" fill="#FFEDB9"/>
<path d="M13.6776 23.3363C13.4698 23.2607 13.2633 23.1846 13.0589 23.108C13.2631 23.1846 13.4696 23.2607 13.6776 23.3363Z" fill="#FFEDB9"/>
<path d="M20.1596 25.358C20.0496 25.3286 19.9384 25.2998 19.8291 25.27C19.9384 25.2998 20.0496 25.3286 20.1596 25.358Z" fill="#FFEDB9"/>
<path d="M12.6953 22.9705C12.4776 22.8873 12.2627 22.8032 12.0491 22.7187C12.2627 22.8032 12.4776 22.8873 12.6953 22.9705Z" fill="#FFEDB9"/>
<path d="M23.0248 26.076C22.9458 26.0574 22.8672 26.0386 22.7883 26.0198C22.8674 26.0386 22.9458 26.0574 23.0248 26.076Z" fill="#FFEDB9"/>
<path d="M17.0821 24.4759C16.8779 24.4131 16.6762 24.3492 16.4748 24.2853C16.6762 24.3492 16.8779 24.4131 17.0821 24.4759Z" fill="#FFEDB9"/>
<path d="M18.1328 24.791C17.9584 24.7399 17.7849 24.6883 17.6124 24.6363C17.7849 24.6883 17.9582 24.7399 18.1328 24.791Z" fill="#FFEDB9"/>
<path d="M19.1867 25.0924C19.0295 25.0484 18.8721 25.0046 18.7162 24.9601C18.8723 25.0046 19.0295 25.0486 19.1867 25.0924Z" fill="#FFEDB9"/>
<path d="M25.0999 26.5387C25.096 26.5384 25.0923 26.538 25.0884 26.5377C25.0923 26.538 25.096 26.5384 25.0999 26.5387Z" fill="#FFEDB9"/>
<path d="M41.8289 1.59775C40.3849 1.95456 38.964 2.3689 37.5677 2.83754C37.3338 2.91615 37.1005 2.99635 36.8679 3.07794C32.6984 4.54025 28.757 6.48885 25.1121 8.85615C33.8039 10.7085 44.0316 11.7856 55 11.7856C62.9562 11.7856 70.5185 11.2163 77.3916 10.1981C78.5673 10.024 79.7225 9.83652 80.8562 9.63669C82.2392 9.39262 83.5938 9.13229 84.9092 8.85156C83.8447 8.16017 82.7546 7.50452 81.6413 6.88623C81.6161 6.87225 81.5909 6.85827 81.5657 6.84429C81.345 6.72215 81.1229 6.60229 80.9004 6.48312C80.8074 6.43317 80.7141 6.38344 80.6206 6.33417C80.4881 6.26427 80.3552 6.19575 80.2221 6.12677C80.0397 6.03235 79.8568 5.9384 79.673 5.84604C79.6473 5.83321 79.6217 5.8206 79.596 5.80777C74.2161 3.10956 68.335 1.26454 62.1264 0.459021C62.1259 0.459021 62.1257 0.459021 62.1252 0.458792C62.1184 0.457875 62.1115 0.457188 62.1046 0.456271C61.7978 0.416625 61.4898 0.379729 61.1811 0.345125C61.121 0.338479 61.0608 0.332292 61.0007 0.325646C60.744 0.297688 60.4869 0.271562 60.2291 0.247042C60.1409 0.238792 60.0529 0.230771 59.9647 0.222979C59.7339 0.202354 59.5027 0.183104 59.2712 0.165229C59.232 0.16225 59.193 0.158354 59.1539 0.155604C59.0881 0.150792 59.0219 0.146437 58.9559 0.141854C58.7384 0.126271 58.5204 0.112521 58.3023 0.0996875C58.1886 0.0930417 58.0749 0.0859375 57.961 0.0799792C57.7463 0.0685208 57.5311 0.059125 57.3157 0.0501875C57.2014 0.045375 57.087 0.0401042 56.9724 0.0359792C56.7458 0.0279583 56.5184 0.0222292 56.2911 0.0169583C56.2833 0.0167292 56.2758 0.0165 56.268 0.0162708C56.1738 0.0139792 56.0798 0.011 55.9856 0.00916667C55.6575 0.00320833 55.3291 0 55 0C54.7227 0 54.4461 0.00366667 54.1697 0.0075625C54.1243 0.00825 54.0787 0.00802083 54.0331 0.0089375C53.938 0.0105417 53.8434 0.0135208 53.7485 0.0155833C53.5182 0.020625 53.2879 0.0268125 53.0583 0.0346042C52.9558 0.0382708 52.8536 0.042625 52.7514 0.04675C52.514 0.056375 52.277 0.0669167 52.0405 0.07975C51.9589 0.0841042 51.8771 0.0886875 51.7955 0.0932708C51.5318 0.108625 51.2682 0.125583 51.0054 0.144604C50.9611 0.147812 50.9169 0.150562 50.8729 0.153771C47.7789 0.384771 44.7576 0.874042 41.8289 1.59775Z" fill="#D55A00"/>
<path d="M64.5673 50.7955L66.5431 53.7096C67.5276 55.1616 66.2663 57.0563 64.5393 56.7469C58.08 55.5901 51.2433 51.1621 40.7846 50.4533L40.785 50.4549C38.7801 50.2773 36.8205 50.0612 34.9078 49.8126C33.7934 53.9433 33.1384 58.2626 33.0209 62.7172C33.0257 62.7179 33.0305 62.7186 33.0353 62.7192C33.0353 62.7211 33.0353 62.7229 33.0351 62.7248C39.8487 63.6332 47.2535 64.1318 54.9996 64.1318C79.1583 64.1318 100.009 59.2863 109.897 52.264C109.943 53.1733 110 54.0794 110 55C110 54.577 109.994 54.1553 109.984 53.7345C109.981 53.6023 109.977 53.4703 109.973 53.3383C109.964 53.0409 109.953 52.7441 109.939 52.448C109.932 52.3052 109.926 52.1622 109.919 52.0199C109.898 51.6393 109.875 51.2593 109.846 50.8805C109.833 50.704 109.817 50.5285 109.802 50.3527C109.783 50.1242 109.764 49.8958 109.742 49.6682C109.72 49.4441 109.697 49.2202 109.673 48.9968C109.656 48.8434 109.638 48.6906 109.62 48.5377C109.233 45.2455 108.556 42.0418 107.615 38.9531C100.226 45.0885 84.0943 49.6568 64.5673 50.7955Z" fill="#FF9300"/>
<path d="M0.138875 51.2832C0.158812 50.9855 0.181958 50.6889 0.206708 50.3926C0.307083 49.1895 0.432667 47.9937 0.609354 46.814C0.610958 46.8023 0.612104 46.7904 0.613937 46.7789C0.802312 45.5279 1.0411 44.2938 1.31221 43.0717C1.35437 42.8808 1.39975 42.691 1.44398 42.501C1.7231 41.3036 2.03087 40.1168 2.38608 38.9506C8.39529 43.9423 20.1926 47.8933 34.8966 49.808C36.1522 45.1536 38.0034 40.7447 40.3636 36.6662C40.3143 36.6616 40.266 36.6566 40.2167 36.652C39.7652 36.6103 39.3161 36.5665 38.8692 36.5209C38.6751 36.5012 38.4821 36.4806 38.2889 36.4602C37.9582 36.4251 37.6287 36.3894 37.3005 36.3523C37.1071 36.3305 36.9137 36.3089 36.7214 36.2863C36.3172 36.2391 35.9155 36.1902 35.5153 36.1398C35.3735 36.122 35.2314 36.1043 35.09 36.0862C34.6541 36.0301 34.2212 35.9721 33.7906 35.9125C33.6077 35.8871 33.426 35.8609 33.2441 35.835C32.9235 35.7892 32.6045 35.7427 32.2868 35.6948C32.1051 35.6675 31.9231 35.6402 31.7426 35.6123C31.3479 35.5513 30.9558 35.4888 30.566 35.4246C30.442 35.4042 30.3178 35.384 30.1943 35.3634C29.7738 35.2931 29.3567 35.2209 28.9419 35.1471C28.7716 35.1168 28.6027 35.0857 28.4334 35.055C28.1233 34.9983 27.8149 34.9411 27.5082 34.8826C27.3412 34.8508 27.1737 34.8191 27.0075 34.7866C26.6193 34.7107 26.2339 34.6337 25.8511 34.5549C25.7551 34.5352 25.6589 34.5155 25.5633 34.4956C25.1538 34.4101 24.7484 34.3225 24.3457 34.2338C24.1922 34.1999 24.04 34.1653 23.8874 34.131C23.587 34.0633 23.2888 33.9946 22.9923 33.9249C22.841 33.8894 22.6893 33.8539 22.539 33.8179C22.1597 33.7269 21.7834 33.6346 21.411 33.5406C21.3418 33.5232 21.2724 33.506 21.2034 33.4884C20.8095 33.388 20.4201 33.2856 20.034 33.1817C19.8956 33.1444 19.7585 33.1066 19.621 33.069C19.3339 32.9904 19.049 32.9109 18.7665 32.8302C18.6319 32.7919 18.497 32.7537 18.3636 32.7149C17.9958 32.6081 17.6309 32.5 17.2711 32.3902C17.2281 32.3769 17.1845 32.3641 17.1414 32.3508C16.7658 32.2355 16.396 32.1179 16.0293 31.9992C15.9065 31.9594 15.7852 31.9193 15.6635 31.8792C15.3927 31.7898 15.1243 31.6997 14.8585 31.6085C14.7395 31.5677 14.6201 31.5272 14.5021 31.4859C14.1526 31.364 13.8066 31.2409 13.4665 31.1158C13.4425 31.1069 13.4179 31.0982 13.3939 31.0894C13.0435 30.9602 12.6997 30.8289 12.3596 30.6964C12.251 30.6543 12.1442 30.6114 12.0365 30.5688C11.7867 30.4698 11.5397 30.3699 11.2956 30.2693C11.1909 30.226 11.0855 30.1829 10.9819 30.1393C10.6585 30.0037 10.3391 29.8668 10.0263 29.7282C10.0123 29.722 9.99808 29.7158 9.98433 29.7096C9.66694 29.5687 9.35687 29.4257 9.05048 29.2816C8.95537 29.2369 8.86187 29.1917 8.76769 29.1466C8.54242 29.0389 8.32035 28.9302 8.10127 28.8207C8.00983 28.7751 7.91794 28.7295 7.82787 28.6837C7.53775 28.5361 7.25175 28.3876 6.97308 28.2372C6.96781 28.2345 6.96231 28.2317 6.95704 28.229C8.12304 26.1408 9.4144 24.1322 10.8336 22.2232C10.838 22.2251 10.8423 22.2269 10.8467 22.2285C11.0653 21.9356 11.2835 21.6423 11.5074 21.3535C11.5926 21.2438 11.6792 21.1349 11.765 21.0258C12.3443 20.2897 12.9415 19.5686 13.5568 18.8632C13.6361 18.7724 13.7138 18.6803 13.7935 18.59C15.8812 16.2282 18.1702 14.0493 20.6307 12.0753C20.7728 11.9614 20.917 11.8504 21.0602 11.7379C21.7378 11.2053 22.4285 10.689 23.1312 10.1881C23.2957 10.0707 23.4593 9.95226 23.6252 9.83676C24.3996 9.29753 25.1875 8.77663 25.9902 8.27682C26.0622 8.2319 26.1323 8.18401 26.2045 8.13955C27.1145 7.57878 28.042 7.04276 28.9861 6.53447C29.0256 6.51315 29.0668 6.49413 29.1062 6.47305C29.9583 6.01724 30.8259 5.58686 31.7041 5.17528C31.9422 5.0639 32.1832 4.95849 32.423 4.85032C33.1242 4.53384 33.833 4.2318 34.5494 3.9442C34.8288 3.83213 35.1081 3.72053 35.3897 3.61305C35.8786 3.42628 36.3722 3.25005 36.8679 3.07772C37.1005 2.99613 37.3338 2.9157 37.5677 2.83732C37.5904 2.82976 37.6131 2.82151 37.6358 2.81395C37.868 2.73672 38.0971 2.65307 38.3306 2.57882C39.3245 2.26303 40.3287 1.97015 41.3462 1.71005C41.4285 1.68897 41.5129 1.67338 41.5951 1.65276C41.6726 1.63328 41.7512 1.61678 41.8291 1.59753C44.7579 0.87382 47.7792 0.384549 50.8729 0.153549C50.82 0.157445 50.7668 0.160883 50.7139 0.165008C50.3133 0.195945 49.9143 0.231924 49.5165 0.271341C49.418 0.280966 49.3196 0.291278 49.2213 0.301591C48.8246 0.34307 48.4289 0.387528 48.0347 0.437258C47.9783 0.444362 47.9224 0.452383 47.8663 0.459716C47.514 0.50532 47.163 0.55482 46.8128 0.60707C46.7106 0.622424 46.6081 0.63732 46.5062 0.653133C46.1326 0.711112 45.7605 0.772758 45.3894 0.83807C45.2783 0.857549 45.1676 0.878403 45.0567 0.89857C44.7418 0.956091 44.4276 1.01613 44.1146 1.07892C44.027 1.09657 43.939 1.11307 43.8517 1.13095C43.4961 1.20428 43.142 1.2822 42.7889 1.3624C42.6536 1.39311 42.5187 1.42405 42.3839 1.45567C42.0429 1.53565 41.7031 1.61792 41.3646 1.70432C41.2333 1.73778 41.1026 1.7733 40.9718 1.80767C40.7264 1.8723 40.4818 1.93853 40.2378 2.00636C40.0888 2.04784 39.9394 2.08863 39.7909 2.13149C39.4795 2.22086 39.1694 2.31345 38.8602 2.40832C38.6893 2.4608 38.5188 2.51465 38.3487 2.56851C38.1475 2.63245 37.9468 2.69776 37.7465 2.76399C37.4759 2.85336 37.2064 2.9448 36.9375 3.0383C36.7652 3.09811 36.5931 3.15838 36.4217 3.22003C36.2241 3.29084 36.0271 3.36234 35.8307 3.43545C35.681 3.49113 35.5321 3.54865 35.3829 3.60549C35.0515 3.73199 34.7217 3.86147 34.3936 3.99415C34.2868 4.03747 34.18 4.08101 34.0736 4.12501C33.6314 4.3072 33.1918 4.49465 32.7552 4.68784C32.7392 4.69495 32.7229 4.70182 32.7067 4.70915C32.4617 4.81801 32.2176 4.9287 31.9745 5.04099C31.9545 5.05015 31.9346 5.05978 31.9147 5.06895C31.4327 5.29215 30.9547 5.52224 30.4805 5.75874C30.475 5.76149 30.4695 5.76424 30.464 5.76699C14.237 13.8701 2.57927 29.7559 0.380187 48.5355C0.362083 48.6892 0.344208 48.843 0.327479 48.9972C0.303417 49.2202 0.279812 49.4432 0.258271 49.6671C0.236271 49.8958 0.216562 50.1252 0.197312 50.3546C0.182646 50.5294 0.166604 50.7038 0.153542 50.8789C0.125354 51.258 0.10175 51.6384 0.0813542 52.0195C0.0737917 52.162 0.0678333 52.305 0.0611875 52.4478C0.0474375 52.7439 0.0362083 53.0406 0.0275 53.3381C0.0236042 53.4701 0.01925 53.6019 0.0162708 53.7343C0.00641667 54.1551 0 54.5767 0 55C0 53.7495 0.056375 52.5126 0.138875 51.2832Z" fill="#FF9300"/>
<path d="M55 64.1318C47.2539 64.1318 39.8488 63.6329 33.0355 62.7248C33.0229 63.2051 33 63.6831 33 64.1667C33 67.2519 33.2796 70.2691 33.7681 73.216C19.6659 71.258 8.34759 67.4192 2.46832 62.5932C8.34278 67.4215 19.6444 71.2697 33.7445 73.2279C40.3118 74.14 47.4844 74.643 54.9997 74.643C80.9794 74.643 102.881 68.6437 109.729 60.445C109.906 58.6534 110 56.8379 110 55.0002C110 54.0797 109.942 53.1735 109.898 52.2642C100.01 59.2861 79.1587 64.1318 55 64.1318Z" fill="#FF7400"/>
<path d="M0.270417 60.445C0.269042 60.4306 0.268354 60.4161 0.266979 60.4017C0.181042 59.5212 0.114125 58.6353 0.0692083 57.7431C0.02475 56.8343 0 55.9201 0 55C0 56.8377 0.0941875 58.6534 0.270417 60.445C0.270417 60.4448 0.270417 60.4448 0.270417 60.445Z" fill="#FF7400"/>
<path d="M0.698224 60.9304C0.550641 60.7695 0.406953 60.6082 0.271057 60.4457C0.406953 60.6082 0.55087 60.7697 0.698224 60.9304Z" fill="#FF7400"/>
<path d="M1.81063 62.0281C1.63142 61.867 1.45771 61.7049 1.29065 61.5418C1.45771 61.7049 1.63142 61.867 1.81063 62.0281Z" fill="#FF7400"/>
<path d="M1.21957 61.4707C1.08115 61.3339 0.94732 61.1962 0.817383 61.058C0.947091 61.1962 1.08115 61.3339 1.21957 61.4707Z" fill="#FF7400"/>
<path d="M2.40672 62.5417C2.23003 62.3955 2.05862 62.2481 1.89178 62.1001C2.05839 62.2481 2.23003 62.3952 2.40672 62.5417Z" fill="#FF7400"/>
<path d="M99.9259 86.7084C103.435 81.7453 106.14 76.1784 107.858 70.1898C102.568 74.72 92.5261 78.4142 79.8571 80.536L72.6791 81.5354C67.1135 82.1615 61.1713 82.5 55 82.5C48.2408 82.5 41.7565 82.0939 35.7411 81.3489C36.6401 84.0831 37.7669 86.7114 39.0645 89.2375C38.0825 88.7597 37.1127 88.2839 36.1563 87.8277C37.101 88.2784 38.0591 88.7484 39.0287 89.2203C44.0938 91.6852 49.4826 94.2022 55 94.2858C73.2612 94.5624 89.5015 91.3172 99.9259 86.7084Z" fill="#FFEDB9"/>
<path d="M32.9505 86.3755C32.8683 86.3409 32.7862 86.3069 32.7044 86.273C32.7862 86.3069 32.8683 86.3409 32.9505 86.3755Z" fill="#FFEDB9"/>
<path d="M32.5145 86.1951C32.4352 86.1627 32.3561 86.1309 32.277 86.0993C32.3561 86.1309 32.4352 86.1625 32.5145 86.1951Z" fill="#FFEDB9"/>
<path d="M31.653 85.8552C31.5779 85.8266 31.5032 85.7988 31.4282 85.7709C31.5032 85.7988 31.5779 85.8266 31.653 85.8552Z" fill="#FFEDB9"/>
<path d="M33.3894 86.5622C33.3034 86.5251 33.2175 86.4886 33.1318 86.4522C33.2175 86.4884 33.3032 86.5251 33.3894 86.5622Z" fill="#FFEDB9"/>
<path d="M32.0826 86.0216C32.0054 85.9911 31.9284 85.9613 31.8516 85.9315C31.9286 85.9616 32.0054 85.9914 32.0826 86.0216Z" fill="#FFEDB9"/>
<path d="M33.831 86.7547C33.7411 86.7151 33.6513 86.6759 33.5617 86.6369C33.6515 86.6759 33.7411 86.7151 33.831 86.7547Z" fill="#FFEDB9"/>
<path d="M34.7249 87.1569C34.6259 87.1115 34.5272 87.0666 34.4284 87.0219C34.5272 87.0666 34.6259 87.1115 34.7249 87.1569Z" fill="#FFEDB9"/>
<path d="M34.2751 86.9527C34.1812 86.9103 34.0874 86.8686 33.9937 86.8269C34.0874 86.8686 34.1812 86.9103 34.2751 86.9527Z" fill="#FFEDB9"/>
<path d="M28.7236 84.9188C28.6541 84.9017 28.5851 84.8858 28.5159 84.8693C28.5851 84.8858 28.6541 84.9017 28.7236 84.9188Z" fill="#FFEDB9"/>
<path d="M28.3156 84.8224C28.2455 84.8066 28.1759 84.7923 28.106 84.7777C28.1759 84.7923 28.2455 84.8066 28.3156 84.8224Z" fill="#FFEDB9"/>
<path d="M29.133 85.0252C29.0645 85.0066 28.9964 84.9894 28.9283 84.9715C28.9966 84.9894 29.0647 85.0068 29.133 85.0252Z" fill="#FFEDB9"/>
<path d="M35.1828 87.3684C35.0747 87.318 34.9667 87.2683 34.859 87.2185C34.9667 87.2683 35.0747 87.318 35.1828 87.3684Z" fill="#FFEDB9"/>
<path d="M29.547 85.1418C29.478 85.1217 29.4095 85.1027 29.3409 85.0834C29.4095 85.1027 29.4782 85.1217 29.547 85.1418Z" fill="#FFEDB9"/>
<path d="M30.802 85.545C30.7303 85.52 30.659 85.4959 30.5875 85.4716C30.659 85.4959 30.7305 85.52 30.802 85.545Z" fill="#FFEDB9"/>
<path d="M31.2264 85.6962C31.1531 85.6694 31.0798 85.6435 31.0067 85.6174C31.0798 85.6435 31.1531 85.6694 31.2264 85.6962Z" fill="#FFEDB9"/>
<path d="M29.9629 85.2674C29.8925 85.2454 29.8226 85.2246 29.7525 85.2035C29.8226 85.2246 29.8928 85.2454 29.9629 85.2674Z" fill="#FFEDB9"/>
<path d="M30.3813 85.4019C30.3103 85.3783 30.2395 85.3559 30.1686 85.3332C30.2395 85.3559 30.31 85.3783 30.3813 85.4019Z" fill="#FFEDB9"/>
<path d="M24.2396 85.022C24.4917 84.6661 24.9021 84.4518 25.5356 84.4642C25.665 84.4667 25.795 84.4715 25.9251 84.4786C25.7947 84.4718 25.665 84.4667 25.5356 84.4642C24.9024 84.4518 24.4919 84.6661 24.2396 85.022Z" fill="#FFEDB9"/>
<path d="M24.285 88.5697C24.3471 88.7851 24.4133 88.9971 24.4816 89.2024C24.4133 88.9971 24.3468 88.7851 24.285 88.5697Z" fill="#FFEDB9"/>
<path d="M3.30597 71.1187C3.32522 71.1329 3.34378 71.1473 3.36303 71.1615C3.34378 71.1473 3.32522 71.1329 3.30597 71.1187Z" fill="#FFEDB9"/>
<path d="M3.97461 71.5981C4.00234 71.6173 4.03053 71.6363 4.05848 71.6554C4.03075 71.6363 4.00234 71.6173 3.97461 71.5981Z" fill="#FFEDB9"/>
<path d="M25.2888 91.2489C25.3229 91.3234 25.3477 91.3759 25.3603 91.4025C25.3477 91.3759 25.3229 91.3234 25.2888 91.2489Z" fill="#FFEDB9"/>
<path d="M2.66931 70.628C2.71331 70.6631 2.75777 70.6981 2.80223 70.7332C2.75777 70.6981 2.71331 70.6631 2.66931 70.628Z" fill="#FFEDB9"/>
<path d="M2.14319 70.1946C3.86217 76.1844 6.56817 81.7522 10.0792 86.7157C12.8214 87.9273 15.9647 89.0253 19.4405 89.9862C15.9647 89.0253 12.8214 87.9271 10.0792 86.7155C6.5684 81.7522 3.86217 76.1844 2.14319 70.1946Z" fill="#FFEDB9"/>
<path d="M4.67523 72.0672C4.68577 72.0741 4.69586 72.0807 4.70617 72.0876C4.69586 72.0807 4.68554 72.0741 4.67523 72.0672Z" fill="#FFEDB9"/>
<path d="M27.9109 84.7367C27.8397 84.7225 27.7689 84.7099 27.6978 84.6966C27.7689 84.7096 27.8397 84.7225 27.9109 84.7367Z" fill="#FFEDB9"/>
<path d="M24.1308 87.9819C24.1775 88.1787 24.2291 88.3756 24.285 88.5697C24.2291 88.3756 24.1775 88.179 24.1308 87.9819Z" fill="#FFEDB9"/>
<path d="M35.642 87.5836C35.5243 87.5279 35.4065 87.4729 35.2891 87.4182C35.4067 87.4729 35.5243 87.5279 35.642 87.5836Z" fill="#FFEDB9"/>
<path d="M27.5082 84.6615C27.4358 84.6489 27.3636 84.6381 27.2914 84.6266C27.3636 84.6381 27.4356 84.6489 27.5082 84.6615Z" fill="#FFEDB9"/>
<path d="M36.1074 87.8043C35.9793 87.7433 35.8517 87.6826 35.7241 87.6223C35.8517 87.6826 35.9793 87.7431 36.1074 87.8043Z" fill="#FFEDB9"/>
<path d="M27.1085 84.5978C27.034 84.587 26.9602 84.5781 26.886 84.5685C26.96 84.5778 27.034 84.5868 27.1085 84.5978Z" fill="#FFEDB9"/>
<path d="M26.711 84.5458C26.6296 84.5364 26.5487 84.529 26.4678 84.521C26.549 84.5288 26.6296 84.5362 26.711 84.5458Z" fill="#FFEDB9"/>
<path d="M24.1434 85.1801C24.0811 85.2986 24.0309 85.4274 23.9944 85.5679C24.0307 85.4276 24.0811 85.2986 24.1434 85.1801Z" fill="#FFEDB9"/>
<path d="M26.3175 84.5059C26.2229 84.4979 26.1287 84.4919 26.0345 84.4862C26.1284 84.4919 26.2226 84.4979 26.3175 84.5059Z" fill="#FFEDB9"/>
<path d="M57.6265 109.936C57.8027 109.928 57.9785 109.918 58.1543 109.908C58.4121 109.893 58.6697 109.877 58.9266 109.859C59.115 109.846 59.3031 109.832 59.491 109.816C59.7326 109.797 59.9732 109.775 60.2138 109.752C60.4104 109.734 60.6071 109.716 60.803 109.695C61.028 109.672 61.2519 109.645 61.4763 109.618C62.3613 109.514 63.24 109.39 64.1115 109.244C64.2263 109.225 64.3416 109.207 64.4564 109.187C64.7538 109.136 65.0499 109.08 65.3458 109.024C65.4443 109.005 65.5431 108.987 65.6416 108.967C65.9567 108.905 66.2711 108.841 66.5844 108.774C66.644 108.761 66.7036 108.748 66.7629 108.735C74.9935 106.937 82.5337 103.294 88.935 98.2657C79.4535 100.696 67.7227 102.143 55.0003 102.143C52.6692 102.143 50.3718 102.093 48.1152 101.999C50.9234 104.958 54.0439 107.618 57.4459 109.895C56.6306 109.931 55.8241 110 55 110C55.4405 110 55.8793 109.994 56.3173 109.983C56.4649 109.98 56.6118 109.974 56.7591 109.969C57.0488 109.96 57.338 109.95 57.6265 109.936Z" fill="#FF7400"/>
<path d="M50.6912 109.816C50.4501 109.797 50.2079 109.783 49.9677 109.761C48.5948 109.636 47.2365 109.46 45.8947 109.236C45.6724 109.199 45.452 109.157 45.2308 109.117C42.3729 108.603 39.5899 107.876 36.9041 106.938C36.8186 106.909 36.7319 106.881 36.6467 106.851C35.2893 106.37 33.957 105.835 32.6507 105.252C32.5678 105.215 32.4853 105.177 32.4025 105.14C29.8817 104 27.461 102.677 25.1586 101.187C30.6006 104.713 36.7015 107.307 43.2391 108.735C43.2973 108.748 43.3553 108.761 43.4138 108.773C43.7282 108.841 44.0435 108.905 44.3598 108.968C44.4569 108.987 44.5541 109.005 44.6515 109.023C44.9483 109.08 45.2457 109.135 45.5441 109.187C45.6575 109.207 45.7717 109.225 45.8853 109.244C46.7591 109.39 47.6398 109.515 48.5269 109.619C48.7497 109.645 48.9722 109.672 49.1956 109.695C49.3925 109.716 49.59 109.734 49.7876 109.752C50.0273 109.775 50.2672 109.797 50.5078 109.816C50.696 109.832 50.8846 109.846 51.0734 109.859C51.3303 109.877 51.5877 109.893 51.8455 109.908C52.0213 109.918 52.197 109.928 52.3733 109.936C52.6618 109.95 52.951 109.96 53.2407 109.969C53.388 109.974 53.5349 109.98 53.6825 109.983C54.1204 109.994 54.5593 110 55 110C53.5482 110 52.1143 109.926 50.6912 109.816Z" fill="#FF7400"/>
<path d="M22.618 98.6494C22.5484 98.6327 22.4791 98.6159 22.4095 98.5992C22.4791 98.6159 22.5484 98.6327 22.618 98.6494Z" fill="#FF7400"/>
<path d="M24.04 98.9798C24.0378 98.9792 24.036 98.9779 24.0339 98.9773C24.036 98.9779 24.0381 98.9792 24.04 98.9798Z" fill="#FF7400"/>
<path d="M21.0651 98.2657L21.0681 98.2661L21.0651 98.2657Z" fill="#FF7400"/>
<path d="M22.519 99.3664C23.3468 99.9737 24.192 100.558 25.0539 101.119C24.1915 100.559 23.3468 99.9733 22.519 99.3664Z" fill="#FF7400"/>
<path d="M21.0663 98.2669C21.4552 98.5724 21.8496 98.8708 22.2468 99.1657C21.8496 98.8708 21.4552 98.5722 21.0663 98.2669Z" fill="#FF7400"/>
<path d="M33.0211 62.717C33.1386 58.2624 33.7936 53.9433 34.908 49.8123C34.9083 49.8114 34.9085 49.8105 34.9087 49.8096C34.9046 49.8091 34.9005 49.8084 34.8966 49.808C20.1926 47.8933 8.39529 43.942 2.38608 38.9505C2.03087 40.1168 1.7231 41.3034 1.44398 42.501C1.39975 42.6912 1.35438 42.8807 1.31221 43.0716C1.0411 44.2938 0.802312 45.5278 0.613937 46.7789C0.612333 46.7906 0.611188 46.8025 0.609354 46.8139C0.432667 47.9937 0.307083 49.1897 0.206708 50.3926C0.182188 50.6889 0.158813 50.9854 0.138875 51.2831C0.056375 52.5126 0 53.7494 0 55C0 54.0794 0.0572917 53.1733 0.102438 52.2642C6.81679 57.0322 18.5937 60.7915 33.0211 62.717Z" fill="#FF7400"/>
<path d="M0.267208 60.4017C0.268583 60.4161 0.269042 60.4306 0.270646 60.445C0.270875 60.4452 0.271104 60.4455 0.271333 60.4459C0.407229 60.6084 0.550917 60.7697 0.6985 60.9306C0.737687 60.9732 0.777562 61.0156 0.817437 61.0582C0.947375 61.1964 1.08121 61.3342 1.21962 61.471C1.24346 61.4946 1.26637 61.5184 1.29067 61.5422C1.45773 61.7054 1.63144 61.8674 1.81065 62.0285C1.83723 62.0526 1.86496 62.0764 1.892 62.1003C2.05883 62.2483 2.23002 62.3957 2.40694 62.5419C2.42756 62.5591 2.44773 62.5762 2.46881 62.5932C8.34808 67.4195 19.6664 71.258 33.7686 73.216C33.2796 70.2691 33 67.2519 33 64.1667C33 63.6831 33.0229 63.2051 33.0355 62.7247C33.0355 62.7229 33.0355 62.7211 33.0358 62.7192C33.0309 62.7186 33.0261 62.7179 33.0213 62.7172C18.5941 60.7917 6.81702 57.0325 0.102667 52.2642C0.0572917 53.1733 0 54.0794 0 55C0 55.9201 0.02475 56.8342 0.0694375 57.7431C0.114125 58.635 0.181271 59.521 0.267208 60.4017Z" fill="#D55A00"/>
<path d="M40.3684 36.6667C41.8955 34.0276 43.6404 31.5326 45.5702 29.1949C45.5707 29.1942 45.5711 29.1935 45.5718 29.1931C45.5695 29.1929 45.567 29.1929 45.5647 29.1926C38.1622 28.7666 31.243 27.849 25.0992 26.5402C25.0956 26.5396 25.0921 26.5386 25.0885 26.538C24.7646 26.469 24.4436 26.3984 24.1241 26.3274C24.0533 26.3115 23.9827 26.2957 23.9121 26.2799C23.6145 26.213 23.3184 26.1452 23.0248 26.0762C22.9457 26.0576 22.8671 26.0388 22.7883 26.02C21.893 25.8081 21.0168 25.5871 20.1593 25.3582C20.0493 25.3289 19.9382 25.3 19.8288 25.2702C19.613 25.2118 19.3998 25.1522 19.1865 25.0926C19.0291 25.0488 18.8721 25.0048 18.716 24.9604C18.5203 24.9045 18.326 24.8481 18.1323 24.7912C17.9579 24.7401 17.7847 24.6886 17.6119 24.6366C17.4345 24.5834 17.2571 24.53 17.0816 24.4759C16.8774 24.4131 16.6757 24.3492 16.4743 24.2852C16.3318 24.2401 16.1878 24.1956 16.0469 24.1498C15.7162 24.0428 15.3894 23.9346 15.0661 23.8251C14.9522 23.7866 14.8408 23.7469 14.7278 23.7082C14.5023 23.6305 14.2775 23.5524 14.0559 23.4733C13.9287 23.4279 13.8031 23.3821 13.6771 23.3363C13.4692 23.2606 13.2628 23.1846 13.0583 23.108C12.9367 23.0624 12.8154 23.0168 12.6951 22.9707C12.4774 22.8876 12.2625 22.8035 12.0489 22.7189C11.9494 22.6795 11.849 22.6405 11.7505 22.6009C11.4407 22.4764 11.1343 22.3509 10.8334 22.2237C10.8308 22.2269 10.8288 22.2303 10.8265 22.2335C10.1626 23.1268 9.53216 24.0458 8.92418 24.9805C8.83641 25.1148 8.75093 25.2507 8.66431 25.3859C8.07077 26.3164 7.49785 27.2614 6.95816 28.2274C6.95816 28.2274 6.95725 28.2287 6.95679 28.2294C6.96206 28.2322 6.96756 28.2349 6.97283 28.2379C7.2515 28.3882 7.5375 28.5367 7.82762 28.6843C7.91791 28.7302 8.00981 28.7758 8.10102 28.8214C8.3201 28.9307 8.54216 29.0393 8.76743 29.1472C8.86162 29.1924 8.95512 29.2375 9.05022 29.2822C9.35662 29.4264 9.66668 29.5691 9.98408 29.7103C9.99806 29.7165 10.0123 29.7225 10.026 29.7289C10.3388 29.8675 10.6583 30.0043 10.9816 30.14C11.0855 30.1835 11.1906 30.2266 11.2954 30.2699C11.5394 30.3705 11.7865 30.4705 12.0363 30.5695C12.1437 30.6121 12.2508 30.6547 12.3594 30.6971C12.6995 30.8296 13.0432 30.9609 13.3936 31.0901C13.4177 31.0991 13.4422 31.1078 13.4663 31.1165C13.8066 31.2416 14.1524 31.3647 14.5019 31.4866C14.6199 31.5278 14.7393 31.5684 14.8582 31.6092C15.1241 31.7002 15.3924 31.7905 15.6633 31.8798C15.785 31.9199 15.9062 31.9603 16.029 31.9999C16.3957 32.1186 16.7656 32.2362 17.1412 32.3515C17.1843 32.3647 17.2278 32.3776 17.2709 32.3909C17.6309 32.5006 17.9955 32.6088 18.3633 32.7156C18.4969 32.7543 18.6317 32.7926 18.7662 32.8309C19.0488 32.9113 19.3336 32.9908 19.6208 33.0697C19.7583 33.1072 19.8953 33.1451 20.0337 33.1824C20.4199 33.2862 20.8092 33.3887 21.2032 33.489C21.2721 33.5067 21.3416 33.5239 21.4108 33.5413C21.7832 33.6352 22.1595 33.7276 22.5387 33.8186C22.6891 33.8546 22.8406 33.8901 22.992 33.9256C23.2883 33.9953 23.5867 34.0638 23.8872 34.1316C24.0398 34.166 24.192 34.2006 24.3455 34.2345C24.7481 34.3234 25.1538 34.411 25.5631 34.4962C25.6586 34.5162 25.7551 34.5359 25.8509 34.5556C26.2334 34.6344 26.6191 34.7116 27.0073 34.7873C27.1734 34.8198 27.3409 34.8514 27.508 34.8833C27.8146 34.9417 28.1231 34.9992 28.4331 35.0556C28.6025 35.0866 28.7714 35.1175 28.9417 35.1477C29.3562 35.2215 29.7735 35.2937 30.1941 35.3641C30.3176 35.3847 30.4418 35.4049 30.5658 35.4253C30.9556 35.4892 31.3477 35.5518 31.7423 35.613C31.9231 35.6409 32.1051 35.668 32.2866 35.6955C32.6042 35.7431 32.9232 35.7899 33.2438 35.8357C33.4258 35.8616 33.6075 35.888 33.7904 35.9132C34.221 35.9727 34.6539 36.0307 35.0897 36.0869C35.2311 36.105 35.3732 36.1226 35.5151 36.1405C35.915 36.1907 36.3169 36.2395 36.7212 36.2869C36.9135 36.3094 37.1071 36.3312 37.3003 36.3529C37.6285 36.3901 37.958 36.4258 38.2887 36.4609C38.4819 36.4813 38.6748 36.5019 38.8689 36.5216C39.3158 36.567 39.765 36.6107 40.2164 36.6527C40.2673 36.6568 40.3175 36.6619 40.3684 36.6667Z" fill="#FFD042"/>
<path d="M57.4456 109.895C54.0436 107.618 50.9231 104.958 48.1149 102C48.1096 101.994 48.1039 101.989 48.0986 101.983C48.089 101.982 48.0796 101.982 48.0702 101.981C39.2897 101.612 31.1208 100.562 24.0386 98.9782C24.037 98.978 24.0356 98.9775 24.034 98.9773C23.5569 98.8705 23.0855 98.761 22.6182 98.6496C22.5486 98.6329 22.4794 98.6161 22.4097 98.5994C21.9573 98.4903 21.5086 98.3799 21.0661 98.2664C21.0659 98.2664 21.0654 98.2662 21.0652 98.2662C21.0656 98.2664 21.0661 98.2669 21.0666 98.2671C21.4555 98.5726 21.8499 98.871 22.247 99.1659C22.3375 99.2331 22.4283 99.3 22.5192 99.3667C23.3472 99.9735 24.1919 100.559 25.0541 101.12C25.0891 101.142 25.124 101.165 25.159 101.188C27.4617 102.677 29.8821 104.001 32.403 105.141C32.4857 105.178 32.568 105.216 32.6512 105.253C33.9572 105.836 35.2896 106.37 36.6471 106.851C36.7324 106.882 36.819 106.909 36.9045 106.939C39.5906 107.876 42.3736 108.604 45.2313 109.118C45.4524 109.157 45.6729 109.199 45.8952 109.236C47.2369 109.461 48.5952 109.636 49.9681 109.761C50.2083 109.783 50.4503 109.798 50.6916 109.816C52.1143 109.926 53.5482 110 55 110C55.824 110 56.6305 109.931 57.4456 109.895Z" fill="#D55A00"/>
<path d="M38.5 95.3333C38.6145 92.6979 37.0487 91.132 34.8333 89.8333C32.0356 88.1934 27.1562 87.0833 27.5 89.8333C27.8437 92.5833 38.3854 97.9688 38.5 95.3333Z" fill="#FFD042"/>
<path d="M57.75 51.3333C59.2688 51.3333 60.5 50.5125 60.5 49.5C60.5 48.4875 59.2688 47.6667 57.75 47.6667C56.2312 47.6667 55 48.4875 55 49.5C55 50.5125 56.2312 51.3333 57.75 51.3333Z" fill="#FF9300"/>
</svg>
