<svg width="110" height="110" viewBox="0 0 110 110" fill="none" xmlns="http://www.w3.org/2000/svg">
<path d="M5.67096 79.3423C5.52521 79.0476 5.38175 78.7513 5.24104 78.4536C5.38152 78.7515 5.52521 79.0476 5.67096 79.3423Z" fill="#FF4F19"/>
<path d="M5.1166 78.1871C4.98185 77.8976 4.84893 77.6073 4.71899 77.3153C4.8487 77.6075 4.98185 77.8976 5.1166 78.1871Z" fill="#FF4F19"/>
<path d="M4.59044 77.0215C4.46463 76.7342 4.33996 76.4459 4.21896 76.156C4.33996 76.4459 4.46463 76.7339 4.59044 77.0215Z" fill="#FF4F19"/>
<path d="M4.09384 75.8496C3.9749 75.5597 3.85665 75.2691 3.74252 74.9767C3.85665 75.2693 3.9749 75.5597 4.09384 75.8496Z" fill="#FF4F19"/>
<path d="M69.5661 1.95364C78.4021 4.37891 86.348 8.9556 92.8121 15.0805C90.632 14.8177 88.4176 14.6667 86.1667 14.6667C57.6881 14.6667 34.2652 36.311 31.4504 64.0468C31.4497 64.0541 31.449 64.0617 31.4483 64.069C31.4481 64.0723 31.4479 64.0755 31.4474 64.0787C38.7097 65.3366 46.808 66 55 66C64.5927 66 73.9725 65.1012 82.1258 63.4003C85.3431 62.727 88.3598 61.9323 91.0956 61.0335C92.057 60.7147 93.0919 61.2411 93.4088 62.2043C93.7239 63.1657 93.2012 64.2006 92.238 64.5175C90.4555 65.1028 88.5514 65.6398 86.567 66.1352C86.5439 66.1542 86.5331 66.1822 86.5088 66.2005L82.921 68.8914L86.6539 69.9208C87.4578 70.1429 88.011 70.8769 88.0003 71.7095C87.9895 72.5439 87.4202 73.2653 86.6108 73.4658C77.3598 75.779 66.4279 77 55 77C54.1927 77 53.4799 76.4718 53.2455 75.6983C53.0111 74.9249 53.3117 74.0889 53.9832 73.6411C54.5706 73.249 54.549 72.6672 54.5133 72.4361C54.4775 72.2033 54.3198 71.6412 53.6395 71.4478L43.6045 69.2294C43.5896 69.226 43.5788 69.2152 43.5639 69.2115C39.2927 68.8916 35.1303 68.4127 31.2036 67.7534C31.1818 68.3886 31.1669 69.0257 31.1669 69.6664C31.1669 82.0884 35.2944 93.5394 42.2425 102.744C46.4991 100.806 50.8782 98.8387 55.0772 99.0016C61.6818 99.2917 65.0568 97.4279 65.0891 97.4082C65.9663 96.9194 67.0854 97.2203 67.5849 98.092C68.0845 98.9659 67.7944 100.076 66.9242 100.582C66.756 100.683 62.7293 102.999 54.9235 102.665C51.8432 102.507 48.2135 104.059 44.6256 105.688C44.6256 105.688 44.6259 105.689 44.6261 105.689C44.6259 105.689 44.6256 105.689 44.6252 105.689C45.8049 107.048 47.0495 108.349 48.3551 109.586C45.4082 109.231 42.5338 108.642 39.7492 107.84C39.749 107.84 39.7485 107.84 39.7483 107.84C39.7403 107.838 39.7322 107.835 39.7242 107.833C39.2641 107.7 38.8064 107.561 38.3511 107.417C38.0678 107.328 37.7871 107.233 37.5059 107.14C37.3973 107.104 37.2884 107.068 37.1802 107.031C35.9473 106.614 34.7316 106.16 33.5415 105.655C33.5541 105.655 33.5679 105.654 33.5807 105.655C22.2427 100.857 12.8475 92.3695 6.90617 81.6947C16.2958 98.5763 34.3124 110 55 110C85.3756 110 110 85.3756 110 55C110 29.6675 92.8719 8.33892 69.5661 1.95364ZM62.3333 53.1667C62.2742 53.1703 62.1775 53.1648 62.0989 53.1648C59.4795 53.1648 57.8664 53.9885 56.0045 54.939C54.0261 55.9488 51.8382 57.0659 48.4706 57.0659C47.5789 57.0659 46.6068 56.9871 45.5327 56.8081C44.5337 56.6415 43.8586 55.6962 44.0252 54.6991C44.19 53.7002 45.1316 53.0143 46.1342 53.1916C50.0784 53.8452 52.0497 52.8408 54.3377 51.6734C56.386 50.6261 58.6328 49.3944 62.3638 49.5C63.3754 49.516 64.183 50.3504 64.1667 51.3638C64.1506 52.3646 63.3323 53.1667 62.3333 53.1667ZM76.6079 50.6332C74.9625 52.728 70.9539 53.1004 69.7652 53.1648C69.7311 53.1667 69.699 53.1667 69.6649 53.1667C68.698 53.1667 67.8906 52.4111 67.8368 51.4335C67.7813 50.4238 68.5548 49.5589 69.5645 49.5034C71.3226 49.4031 73.3439 48.8517 73.7252 48.3665C74.3502 47.5716 75.5013 47.4302 76.2997 48.0585C77.0949 48.6835 77.2345 49.8367 76.6079 50.6332ZM47.135 76.4502C46.786 76.7977 46.3096 76.9998 45.8333 76.9998C45.3571 76.9998 44.8791 76.7974 44.5317 76.4681C44.2005 76.1191 44 75.6426 44 75.1664C44 74.6902 44.2005 74.2122 44.5317 73.8648C45.2102 73.1862 46.4383 73.1862 47.1348 73.8648C47.4822 74.2122 47.6665 74.6902 47.6665 75.1664C47.6665 75.6426 47.4822 76.1191 47.135 76.4502ZM70.9681 85.6169C70.6191 85.9643 70.1427 86.1664 69.6665 86.1664C69.1902 86.1664 68.7122 85.9641 68.3648 85.6348C68.0336 85.2858 67.8331 84.8093 67.8331 84.3331C67.8331 83.8569 68.0336 83.3789 68.3648 83.0314C69.0434 82.3529 70.2715 82.3529 70.9679 83.0314C71.3153 83.3789 71.4996 83.8569 71.4996 84.3331C71.4996 84.8093 71.3155 85.2858 70.9681 85.6169ZM85.6348 45.2609C85.2858 45.6083 84.8093 45.8104 84.3331 45.8104C83.8569 45.8104 83.3789 45.6081 83.0315 45.2788C82.7003 44.9297 82.4998 44.4533 82.4998 43.9771C82.4998 43.5009 82.7003 43.0228 83.0315 42.6754C83.71 41.9969 84.9381 41.9969 85.6346 42.6754C85.982 43.0228 86.1662 43.5009 86.1662 43.9771C86.1662 44.4533 85.9822 44.9297 85.6348 45.2609ZM92.9681 52.6169C92.6191 52.9643 92.1427 53.1664 91.6665 53.1664C91.1903 53.1664 90.7122 52.9641 90.3648 52.6348C90.0336 52.2858 89.8331 51.8093 89.8331 51.3331C89.8331 50.8569 90.0336 50.3789 90.3648 50.0314C91.0434 49.3529 92.2715 49.3529 92.9679 50.0314C93.3153 50.3789 93.4996 50.8569 93.4996 51.3331C93.4996 51.8093 93.3155 52.2858 92.9681 52.6169ZM84.7397 29.9134C84.6017 29.9457 84.4658 29.9599 84.3297 29.9599C83.4937 29.9599 82.7381 29.3851 82.5447 28.5347C82.3192 27.5481 82.935 26.5652 83.9234 26.3397C89.6085 25.0399 94.5402 23.4369 98.6808 21.593C99.4405 22.5848 100.169 23.6012 100.86 24.6444C96.368 26.7156 90.9606 28.4925 84.7397 29.9134Z" fill="#FF4F19"/>
<path d="M6.25235 80.4849C6.09285 80.1808 5.93656 79.8747 5.78256 79.5674C5.93656 79.8749 6.09308 80.1808 6.25235 80.4849Z" fill="#FF4F19"/>
<path d="M6.85964 81.6124C6.68295 81.2937 6.51016 80.9728 6.33966 80.6504C6.50993 80.9728 6.68318 81.2937 6.85964 81.6124Z" fill="#FF4F19"/>
<path d="M0.687038 63.6973C0.654267 63.4915 0.622642 63.2853 0.592163 63.0786C0.622642 63.2853 0.654267 63.4915 0.687038 63.6973Z" fill="#FF4F19"/>
<path d="M63.1732 0.605232C63.4837 0.651524 63.7927 0.70217 64.1014 0.753732C63.7924 0.702399 63.4835 0.651524 63.1732 0.605232Z" fill="#FF4F19"/>
<path d="M64.4861 0.817665C64.8175 0.875415 65.1473 0.93729 65.4766 1.001C65.1473 0.937519 64.8175 0.875186 64.4861 0.817665Z" fill="#FF4F19"/>
<path d="M0.0990964 58.2746C0.0885214 58.0928 0.0763714 57.9118 0.0675964 57.7296C0.0763714 57.9118 0.0887464 58.0928 0.0990964 58.2746Z" fill="#FF4F19"/>
<path d="M0.0328551 56.8274C0.0279051 56.6745 0.0207051 56.5221 0.0171051 56.3688C0.0207051 56.5219 0.0279051 56.6743 0.0328551 56.8274Z" fill="#FF4F19"/>
<path d="M61.8452 0.423729C62.1351 0.459708 62.4234 0.500271 62.7119 0.540833C62.4234 0.500271 62.1351 0.459708 61.8452 0.423729Z" fill="#FF4F19"/>
<path d="M56.3933 0.0173187C56.5686 0.0215937 56.7428 0.0303687 56.9177 0.0362187C56.7428 0.0303687 56.5686 0.0215937 56.3933 0.0173187Z" fill="#FF4F19"/>
<path d="M57.7752 0.0694351C57.9943 0.0802351 58.2122 0.0955351 58.4306 0.10881C58.2122 0.0957601 57.9945 0.0802351 57.7752 0.0694351Z" fill="#FF4F19"/>
<path d="M65.7825 1.05943C66.1352 1.12956 66.4863 1.20404 66.8365 1.28104C66.4861 1.20427 66.135 1.12956 65.7825 1.05943Z" fill="#FF4F19"/>
<path d="M67.0622 1.33031C67.4364 1.41419 67.809 1.50219 68.1803 1.59363C67.809 1.50242 67.4367 1.41396 67.0622 1.33031Z" fill="#FF4F19"/>
<path d="M68.3242 1.62868C68.7218 1.72769 69.1176 1.83104 69.5118 1.93875C69.1176 1.83127 68.7218 1.72769 68.3242 1.62868Z" fill="#FF4F19"/>
<path d="M0.492484 62.367C0.465213 62.164 0.438401 61.9609 0.413422 61.7574C0.43863 61.9609 0.465442 62.164 0.492484 62.367Z" fill="#FF4F19"/>
<path d="M0.329546 61.0223C0.307776 60.8231 0.285776 60.6242 0.266296 60.4244C0.285776 60.6242 0.307776 60.8231 0.329546 61.0223Z" fill="#FF4F19"/>
<path d="M0.197587 59.6613C0.181612 59.4681 0.164737 59.2753 0.150787 59.0817C0.164737 59.2753 0.181837 59.4683 0.197587 59.6613Z" fill="#FF4F19"/>
<path d="M59.1454 0.154915C59.3913 0.173248 59.636 0.196394 59.881 0.218165C59.636 0.196394 59.3913 0.173248 59.1454 0.154915Z" fill="#FF4F19"/>
<path d="M1.77169 68.8937C1.71463 68.6746 1.66123 68.4541 1.60669 68.2339C1.66123 68.4541 1.71463 68.6746 1.77169 68.8937Z" fill="#FF4F19"/>
<path d="M3.63321 74.6891C3.51725 74.387 3.40198 74.0845 3.29129 73.78C3.40198 74.0845 3.51725 74.3868 3.63321 74.6891Z" fill="#FF4F19"/>
<path d="M2.11773 70.1624C2.05127 69.9307 1.9894 69.6969 1.92592 69.4641C1.9894 69.6971 2.0515 69.9307 2.11773 70.1624Z" fill="#FF4F19"/>
<path d="M1.45498 67.6122C1.4048 67.3988 1.35782 67.1843 1.31015 66.9701C1.35782 67.1843 1.40503 67.3988 1.45498 67.6122Z" fill="#FF4F19"/>
<path d="M3.23308 73.615C2.87673 72.6245 2.54948 71.6205 2.24927 70.6046C2.54948 71.6203 2.87696 72.6245 3.23308 73.615Z" fill="#FF4F19"/>
<path d="M1.16875 66.3199C1.12475 66.1093 1.08282 65.8978 1.04111 65.6865C1.08282 65.898 1.12452 66.1093 1.16875 66.3199Z" fill="#FF4F19"/>
<path d="M0.912308 65.0146C0.874037 64.8067 0.83737 64.5982 0.80162 64.3894C0.8376 64.5982 0.874266 64.8065 0.912308 65.0146Z" fill="#FF4F19"/>
<path d="M60.5023 0.273163C60.7709 0.299975 61.0381 0.331371 61.3057 0.36185C61.0381 0.331371 60.7709 0.299975 60.5023 0.273163Z" fill="#FF4F19"/>
<path d="M33.5802 105.655C33.5676 105.654 33.5537 105.655 33.5411 105.655C34.7311 106.16 35.9471 106.614 37.1798 107.031C37.2879 107.068 37.397 107.104 37.5054 107.14C37.7866 107.233 38.0673 107.328 38.3506 107.417C38.8057 107.561 39.2634 107.7 39.7237 107.833C39.7318 107.835 39.7398 107.838 39.7478 107.84C39.748 107.84 39.7485 107.84 39.7487 107.84C42.5331 108.642 45.4078 109.231 48.3546 109.586C47.0491 108.349 45.8045 107.048 44.6247 105.689C44.2901 105.841 43.9553 105.993 43.6221 106.145C42.3101 106.742 41.0211 107.327 39.7682 107.832C39.5934 107.782 39.4183 107.732 39.2439 107.68C38.6254 107.496 38.0135 107.297 37.4037 107.093C37.0111 106.961 36.6156 106.834 36.2269 106.693C35.8006 106.54 35.3833 106.368 34.9621 106.204C34.5006 106.024 34.0377 105.846 33.5823 105.653C35.7071 105.705 38.9476 104.244 42.102 102.808C42.1525 102.785 42.2031 102.762 42.2537 102.739C43.0146 103.747 43.7983 104.737 44.6252 105.689C48.213 104.06 51.8428 102.508 54.923 102.665C62.7291 103 66.7556 100.683 66.9238 100.583C67.7939 100.076 68.084 98.9659 67.5845 98.0923C67.0849 97.2203 65.9659 96.9196 65.0886 97.4084C65.0563 97.4281 61.6816 99.292 55.0768 99.0018C50.8778 98.8389 46.4986 100.806 42.2421 102.744C35.2942 93.5396 31.1667 82.0886 31.1667 69.6667C31.1667 69.0259 31.1816 68.3891 31.2033 67.7536C35.1303 68.4131 39.2925 68.8921 43.5637 69.2118C43.5786 69.2154 43.5891 69.2262 43.6042 69.2296L53.6392 71.448C54.3196 71.6414 54.477 72.2035 54.513 72.4364C54.5488 72.6674 54.5703 73.2492 53.983 73.6413C53.3115 74.0889 53.0108 74.9251 53.2453 75.6986C53.4797 76.472 54.1924 77 55 77C66.4278 77 77.3598 75.779 86.6106 73.4658C87.4197 73.2653 87.9892 72.5439 88 71.7095C88.0108 70.8769 87.4576 70.1429 86.6536 69.9208L82.9207 68.8914L86.5086 66.2005C86.5329 66.1822 86.5436 66.1545 86.5668 66.1352C88.5509 65.6397 90.4553 65.1028 92.2377 64.5175C93.2009 64.2006 93.7237 63.1659 93.4086 62.2043C93.0916 61.2411 92.0569 60.7147 91.0953 61.0335C88.3596 61.9323 85.3428 62.7273 82.1255 63.4003C73.9725 65.1012 64.5927 66 55 66C46.808 66 38.7097 65.3366 31.4474 64.0787C31.4476 64.0755 31.4479 64.0723 31.4483 64.069C31.3259 65.2818 31.2579 66.5099 31.2153 67.7447C30.47 67.6195 29.7183 67.499 28.9912 67.3606C27.9957 67.1708 27.3423 66.2111 27.5321 65.2174C27.72 64.2219 28.6798 63.5701 29.6752 63.7583C30.2489 63.8676 30.8653 63.9453 31.4501 64.0468C34.2652 36.311 57.6881 14.6667 86.1667 14.6667C88.4175 14.6667 90.632 14.8177 92.812 15.0805C86.3477 8.9556 78.402 4.37892 69.5661 1.95365C69.548 1.9486 69.5299 1.94379 69.5117 1.93898C69.1178 1.83127 68.7218 1.72792 68.3242 1.62892C68.2765 1.617 68.2284 1.60554 68.1805 1.59385C67.8093 1.50242 67.4366 1.41442 67.0624 1.33054C66.9872 1.31358 66.9116 1.29777 66.8365 1.28127C66.4863 1.20427 66.1352 1.13002 65.7825 1.05967C65.6808 1.0395 65.5786 1.02071 65.4768 1.001C65.1475 0.937292 64.8177 0.875417 64.4864 0.817667C64.3585 0.795438 64.2297 0.775271 64.1016 0.753958C63.7929 0.702396 63.4837 0.65175 63.1735 0.605458C63.0201 0.582542 62.8659 0.562604 62.7121 0.540833C62.4236 0.500271 62.1353 0.459708 61.8454 0.423729C61.6662 0.4015 61.4856 0.382708 61.306 0.362083C61.0385 0.331375 60.7713 0.299979 60.5025 0.273396C60.296 0.252771 60.0884 0.2365 59.8815 0.218167C59.6365 0.196625 59.3917 0.173479 59.1459 0.154917C58.9084 0.137271 58.6694 0.124208 58.4311 0.109542C58.2127 0.0960208 57.9947 0.0802083 57.7757 0.0694375C57.4906 0.0552292 57.2041 0.04675 56.9179 0.0368958C56.743 0.0309375 56.5689 0.022 56.3936 0.0176458C55.9302 0.0061875 55.4659 0 55 0C30.9343 0 10.4819 15.458 3.02179 36.9852C3.1279 36.6745 3.23698 36.3651 3.34973 36.0575C3.39006 36.0935 3.44094 36.1091 3.47875 36.1492C6.4114 39.2824 11.7485 42.1827 18.9117 44.5353C19.8749 44.8523 20.3977 45.887 20.0826 46.8485C19.8284 47.622 19.1123 48.1108 18.3404 48.1108C18.1507 48.1108 17.9591 48.0821 17.7694 48.0196C10.9441 45.7788 5.5841 42.9981 2.1104 39.9204C2.38906 38.9414 2.6856 37.9702 3.01217 37.0127C1.06219 42.6491 0 48.7002 0 55C0 55.4576 0.0061875 55.9137 0.0174167 56.3688C0.0210833 56.5221 0.0286458 56.6745 0.0334583 56.8274C0.0433125 57.1285 0.0531667 57.4296 0.0678333 57.7296C0.0767708 57.9118 0.0891458 58.0928 0.0999167 58.2746C0.115729 58.5441 0.131312 58.8133 0.151021 59.0817C0.165229 59.2753 0.182417 59.4681 0.198687 59.6613C0.220229 59.9161 0.241542 60.1707 0.266521 60.4244C0.286 60.6242 0.308 60.8231 0.329771 61.0223C0.356583 61.2677 0.383854 61.5129 0.413875 61.7574C0.438854 61.9612 0.465667 62.1642 0.492937 62.367C0.524792 62.6047 0.557562 62.8419 0.592396 63.0786C0.622875 63.2853 0.6545 63.4915 0.687271 63.6973C0.723938 63.9286 0.762208 64.1591 0.801854 64.3894C0.837833 64.5982 0.874271 64.8067 0.912542 65.0146C0.953792 65.2392 0.997333 65.4628 1.04133 65.6865C1.08304 65.898 1.12475 66.1093 1.16898 66.3199C1.21435 66.5372 1.26248 66.7537 1.3106 66.9701C1.35827 67.1843 1.40525 67.3988 1.45544 67.6122C1.50425 67.82 1.55604 68.027 1.60715 68.2339C1.66146 68.4541 1.71508 68.6746 1.77215 68.8937C1.82187 69.0846 1.87481 69.2741 1.9266 69.4641C1.99008 69.6971 2.05196 69.9307 2.11842 70.1624C2.16081 70.3104 2.20642 70.4571 2.24996 70.6044C2.55017 71.6203 2.87742 72.6245 3.23377 73.6148C3.25348 73.6695 3.27204 73.725 3.29198 73.7798C3.40267 74.0843 3.51794 74.3868 3.6339 74.6889C3.67056 74.7847 3.70608 74.8811 3.74321 74.9765C3.85733 75.2689 3.97558 75.5595 4.09452 75.8494C4.13646 75.9513 4.17725 76.0538 4.21965 76.1555C4.34065 76.4456 4.46531 76.7337 4.59113 77.0211C4.63398 77.1189 4.67615 77.2173 4.71969 77.3151C4.84962 77.6071 4.98254 77.8974 5.11729 78.1869C5.15877 78.2758 5.19979 78.3647 5.24173 78.4534C5.38244 78.7511 5.5259 79.0474 5.67165 79.3421C5.70877 79.417 5.7459 79.4922 5.78348 79.5669C5.93725 79.8744 6.09377 80.1804 6.25327 80.4845C6.28215 80.5397 6.31148 80.5947 6.34058 80.6499C6.51108 80.9724 6.6841 81.2934 6.86056 81.612C6.87592 81.6395 6.89127 81.6668 6.90662 81.6943C12.8473 92.3698 22.2425 100.857 33.5802 105.655ZM39.0317 17.0317C39.7102 16.3531 40.9383 16.3531 41.6348 17.0317C41.9822 17.3791 42.1664 17.8571 42.1664 18.3333C42.1664 18.8095 41.982 19.2857 41.6348 19.6171C41.2857 19.9643 40.8095 20.1667 40.3333 20.1667C39.8571 20.1667 39.3791 19.9643 39.0317 19.635C38.7005 19.2858 38.5 18.8095 38.5 18.3333C38.5 17.8571 38.7005 17.3791 39.0317 17.0317ZM24.0247 24.2981C25.4446 22.0667 27.9808 21.1392 29.6892 22.2264C31.3977 23.3136 31.6316 26.0038 30.2117 28.2352C28.7918 30.4666 26.2559 31.394 24.5472 30.3068C22.8385 29.2197 22.6048 26.5295 24.0247 24.2981ZM12.7497 62.9791C12.2955 60.8777 13.2316 58.8922 14.8406 58.5443C16.4496 58.1964 18.1223 59.6182 18.5765 61.7196C19.0307 63.8211 18.0945 65.8066 16.4856 66.1545C14.8766 66.5021 13.2039 65.0804 12.7497 62.9791Z" fill="#DB3F3D"/>
<path d="M62.3638 49.5C58.6328 49.3944 56.3858 50.6261 54.3377 51.6734C52.0497 52.8408 50.0784 53.8452 46.1342 53.1916C45.1316 53.0145 44.19 53.7002 44.0252 54.6991C43.8586 55.6964 44.5337 56.6418 45.5327 56.8081C46.607 56.9871 47.5791 57.0659 48.4706 57.0659C51.8382 57.0659 54.0261 55.9488 56.0045 54.939C57.8664 53.9885 59.4795 53.1648 62.0989 53.1648C62.1778 53.1648 62.2745 53.1701 62.3334 53.1667C63.3323 53.1667 64.1507 52.3646 64.1667 51.3638C64.1827 50.3504 63.3754 49.516 62.3638 49.5Z" fill="#DB3F3D"/>
<path d="M76.2999 48.0588C75.5015 47.4304 74.3502 47.5718 73.7254 48.3668C73.3441 48.8519 71.3229 49.4033 69.5647 49.5037C68.555 49.5591 67.7815 50.424 67.837 51.4337C67.8906 52.4113 68.6982 53.1669 69.6651 53.1669C69.699 53.1669 69.7313 53.1669 69.7654 53.1651C70.9541 53.1007 74.963 52.7283 76.6081 50.6335C77.2345 49.8367 77.0949 48.6835 76.2999 48.0588Z" fill="#DB3F3D"/>
<path d="M24.0229 24.2983C22.6029 26.5298 22.8368 29.2201 24.5453 30.3074C26.2538 31.3946 28.79 30.467 30.21 28.2356C31.6301 26.0042 31.3962 23.3138 29.6876 22.2266C27.9791 21.1393 25.4429 22.0669 24.0229 24.2983Z" fill="#A03939"/>
<path d="M16.4861 66.1523C18.095 65.8045 19.031 63.819 18.5767 61.7176C18.1224 59.6163 16.4499 58.1947 14.841 58.5425C13.2321 58.8904 12.2961 60.8758 12.7503 62.9772C13.2046 65.0786 14.8772 66.5001 16.4861 66.1523Z" fill="#A03939"/>
<path d="M40.3333 20.1667C40.8095 20.1667 41.2857 19.9643 41.635 19.6171C41.9822 19.2858 42.1667 18.8095 42.1667 18.3333C42.1667 17.8571 41.9822 17.3791 41.635 17.0317C40.9386 16.3531 39.7105 16.3531 39.0319 17.0317C38.7005 17.3791 38.5 17.8571 38.5 18.3333C38.5 18.8095 38.7005 19.2858 39.0317 19.635C39.3791 19.9643 39.8571 20.1667 40.3333 20.1667Z" fill="#A03939"/>
<path d="M83.0317 42.6756C82.7005 43.0231 82.5 43.5011 82.5 43.9773C82.5 44.4535 82.7005 44.9297 83.0317 45.279C83.3791 45.6085 83.8571 45.8106 84.3333 45.8106C84.8095 45.8106 85.2858 45.6083 85.635 45.2611C85.9824 44.93 86.1667 44.4537 86.1667 43.9773C86.1667 43.5009 85.9822 43.0231 85.635 42.6756C84.9383 41.9971 83.7102 41.9971 83.0317 42.6756Z" fill="#DB3F3D"/>
<path d="M90.365 50.0317C90.0338 50.3791 89.8333 50.8571 89.8333 51.3333C89.8333 51.8095 90.0338 52.2858 90.365 52.635C90.7124 52.9645 91.1904 53.1667 91.6666 53.1667C92.1429 53.1667 92.6191 52.9643 92.9683 52.6171C93.3157 52.286 93.5 51.8098 93.5 51.3333C93.5 50.8569 93.3155 50.3791 92.9683 50.0317C92.2716 49.3531 91.0435 49.3531 90.365 50.0317Z" fill="#DB3F3D"/>
<path d="M44.5317 73.865C44.2005 74.2124 44 74.6905 44 75.1667C44 75.6429 44.2005 76.1191 44.5317 76.4683C44.8791 76.7979 45.3571 77 45.8333 77C46.3095 77 46.7857 76.7976 47.135 76.4504C47.4824 76.1193 47.6667 75.6431 47.6667 75.1667C47.6667 74.6902 47.4822 74.2124 47.135 73.865C46.4386 73.1864 45.2102 73.1864 44.5317 73.865Z" fill="#DB3F3D"/>
<path d="M68.365 83.0317C68.0339 83.3791 67.8333 83.8571 67.8333 84.3333C67.8333 84.8095 68.0339 85.2857 68.365 85.635C68.7124 85.9645 69.1905 86.1666 69.6667 86.1666C70.1429 86.1666 70.6191 85.9643 70.9683 85.6171C71.3158 85.2859 71.5 84.8097 71.5 84.3333C71.5 83.8569 71.3155 83.3791 70.9683 83.0317C70.2717 82.3531 69.0436 82.3531 68.365 83.0317Z" fill="#DB3F3D"/>
<path d="M27.5323 65.2176C27.3426 66.2113 27.9959 67.1708 28.9914 67.3608C29.7186 67.4992 30.4702 67.6198 31.2155 67.7449C31.2579 66.5101 31.3259 65.282 31.4485 64.0693C31.4492 64.0619 31.4497 64.0544 31.4506 64.047C30.8658 63.9455 30.2491 63.8678 29.6757 63.7585C28.6797 63.5704 27.7202 64.2221 27.5323 65.2176Z" fill="#A03939"/>
<path d="M17.7694 48.0194C17.9591 48.0819 18.1507 48.1106 18.3404 48.1106C19.112 48.1106 19.8282 47.6217 20.0826 46.8483C20.3977 45.887 19.8749 44.852 18.9118 44.5351C11.7485 42.1825 6.4114 39.2821 3.47875 36.149C3.44117 36.1089 3.39006 36.0933 3.34973 36.0573C3.23698 36.3649 3.1279 36.6742 3.02179 36.985C3.01858 36.9941 3.01538 37.0031 3.01217 37.0122C2.68561 37.9697 2.38906 38.9411 2.1104 39.9199C5.58411 42.9979 10.9441 45.7786 17.7694 48.0194Z" fill="#A03939"/>
<path d="M42.2537 102.739C42.2033 102.762 42.1524 102.785 42.102 102.808C38.9476 104.244 35.7074 105.705 33.5823 105.653C34.0377 105.846 34.5006 106.024 34.9621 106.204C35.3833 106.368 35.8006 106.54 36.2269 106.693C36.6156 106.834 37.0109 106.961 37.4037 107.093C38.0135 107.297 38.6253 107.496 39.2439 107.68C39.418 107.732 39.5931 107.782 39.7682 107.832C41.0211 107.327 42.3101 106.742 43.6221 106.145C43.9553 105.993 44.2901 105.841 44.6247 105.689C44.6249 105.689 44.6252 105.689 44.6256 105.689C44.6254 105.689 44.6254 105.689 44.6254 105.689C43.7986 104.737 43.0146 103.747 42.2537 102.739Z" fill="#A03939"/>
<path d="M98.6808 21.593C94.5402 23.4371 89.6085 25.0399 83.9234 26.3397C82.935 26.5652 82.3192 27.5481 82.5447 28.5347C82.7381 29.3851 83.4937 29.9599 84.3297 29.9599C84.4658 29.9599 84.6019 29.9454 84.7397 29.9134C90.9606 28.4925 96.368 26.7156 100.86 24.6444C100.168 23.6012 99.4405 22.5848 98.6808 21.593Z" fill="#DB3F3D"/>
</svg>
