<svg width="103" height="110" viewBox="0 0 103 110" fill="none" xmlns="http://www.w3.org/2000/svg">
<path d="M66.3763 18.9815L73.9631 17.0849L79.6533 18.9815L89.1367 20.8782L94.8268 17.0849C98.0037 20.4098 100.745 24.1253 102.983 28.1425L102.414 28.465L91.0336 32.2582L79.6535 30.3616L75.8602 24.6715H64.4801L58.79 30.3616L60.6866 43.6383L73.9633 49.3285L81.5501 47.4318L87.2403 51.2251V58.8119L91.0336 66.3987L94.8268 73.9855V81.5723L99.9479 86.6933C82.4321 111.513 48.1113 117.433 23.2932 99.917C2.21525 85.0392 -5.69209 57.5125 4.27883 33.7188L7.57905 43.6383L13.2692 47.4316L18.9593 51.2249L15.1658 55.0184V60.7086L18.9591 68.2953L28.4426 70.192V89.1589L32.2359 98.6423L37.926 100.539V91.0555L45.5128 85.3654V79.6752L53.0996 72.0884L54.9962 62.605H47.4094L41.7193 53.1216H28.4426L24.6493 45.5348L18.9591 51.2249V43.6381L15.1658 39.845V34.1549L28.4426 32.2582L37.926 26.5681L43.6162 17.0847L49.3063 15.188L51.2029 9.49787L39.8229 7.60123L34.4363 3.99743C49.0219 -1.87662 65.4243 -1.22801 79.5016 5.78042L72.0665 9.49787H64.4797L60.6864 17.0847L66.3763 18.9815Z" fill="#86DAF1"/>
</svg>
